<?xml version="1.0" standalone="no"?>
 <!DOCTYPE svg PUBLIC "-//W3C//DTD SVG 1.1//EN" 
 "http://www.w3.org/Graphics/SVG/1.1/DTD/svg11.dtd"> 
<svg
  xmlns:svg="http://www.w3.org/2000/svg"
  xmlns="http://www.w3.org/2000/svg"
  xmlns:xlink="http://www.w3.org/1999/xlink"
  version="1.1"
  width="297.0022mm" height="210.0072mm" viewBox="0.0000 0.0000 297.0022 210.0072">
<title>SVG Image created as PCB-B_Cu.svg date 2026/03/10 22:36:50 </title>
  <desc>Image generated by PCBNEW </desc>
<g style="fill:#000000; fill-opacity:1.0000;stroke:#000000; stroke-opacity:1.0000;
stroke-linecap:round; stroke-linejoin:round;"
 transform="translate(0 0) scale(1 1)">
</g>
<g style="fill:none; 
stroke:#000000; stroke-width:0.4000; stroke-opacity:1; 
stroke-linecap:round; stroke-linejoin:round;">
<circle cx="170.5610" cy="60.1980" r="0.6000" /> 
<circle cx="125.2220" cy="60.5790" r="0.6000" /> 
<circle cx="149.3520" cy="74.4220" r="0.6000" /> 
<circle cx="148.8440" cy="92.4560" r="0.6000" /> 
<circle cx="130.4290" cy="92.5750" r="0.6000" /> 
<circle cx="167.2590" cy="92.2850" r="0.6000" /> 
</g>
<g style="fill:none; 
stroke:#000000; stroke-width:0.3000; stroke-opacity:1; 
stroke-linecap:round; stroke-linejoin:round;">
<g transform="rotate(-90.000000 175.8950 60.2730)">
<text x="175.8950" y="60.2730"
transform="scale(-1 1) translate(-351.790000 0)"
textLength="27.0286" font-size="2.0000" lengthAdjust="spacingAndGlyphs"
text-anchor="start" opacity="0" stroke-opacity="0">GESTURE --&gt; SPEECH</text>
</g>
<g class="stroked-text"><desc>GESTURE --&gt; SPEECH</desc>
<path d="M174.2673 61.6132
L174.1958 61.4704
" />
<path d="M174.1958 61.4704
L174.1958 61.2561
" />
<path d="M174.1958 61.2561
L174.2673 61.0418
" />
<path d="M174.2673 61.0418
L174.4101 60.8989
" />
<path d="M174.4101 60.8989
L174.5530 60.8275
" />
<path d="M174.5530 60.8275
L174.8387 60.7561
" />
<path d="M174.8387 60.7561
L175.0530 60.7561
" />
<path d="M175.0530 60.7561
L175.3387 60.8275
" />
<path d="M175.3387 60.8275
L175.4815 60.8989
" />
<path d="M175.4815 60.8989
L175.6244 61.0418
" />
<path d="M175.6244 61.0418
L175.6958 61.2561
" />
<path d="M175.6958 61.2561
L175.6958 61.3989
" />
<path d="M175.6958 61.3989
L175.6244 61.6132
" />
<path d="M175.6244 61.6132
L175.5530 61.6847
" />
<path d="M175.5530 61.6847
L175.0530 61.6847
" />
<path d="M175.0530 61.6847
L175.0530 61.3989
" />
<path d="M174.9101 62.3275
L174.9101 62.8275
" />
<path d="M175.6958 63.0418
L175.6958 62.3275
" />
<path d="M175.6958 62.3275
L174.1958 62.3275
" />
<path d="M174.1958 62.3275
L174.1958 63.0418
" />
<path d="M175.6244 63.6132
L175.6958 63.8275
" />
<path d="M175.6958 63.8275
L175.6958 64.1847
" />
<path d="M175.6958 64.1847
L175.6244 64.3275
" />
<path d="M175.6244 64.3275
L175.5530 64.3989
" />
<path d="M175.5530 64.3989
L175.4101 64.4704
" />
<path d="M175.4101 64.4704
L175.2673 64.4704
" />
<path d="M175.2673 64.4704
L175.1244 64.3989
" />
<path d="M175.1244 64.3989
L175.0530 64.3275
" />
<path d="M175.0530 64.3275
L174.9815 64.1847
" />
<path d="M174.9815 64.1847
L174.9101 63.8989
" />
<path d="M174.9101 63.8989
L174.8387 63.7561
" />
<path d="M174.8387 63.7561
L174.7673 63.6847
" />
<path d="M174.7673 63.6847
L174.6244 63.6132
" />
<path d="M174.6244 63.6132
L174.4815 63.6132
" />
<path d="M174.4815 63.6132
L174.3387 63.6847
" />
<path d="M174.3387 63.6847
L174.2673 63.7561
" />
<path d="M174.2673 63.7561
L174.1958 63.8989
" />
<path d="M174.1958 63.8989
L174.1958 64.2561
" />
<path d="M174.1958 64.2561
L174.2673 64.4704
" />
<path d="M174.1958 64.8989
L174.1958 65.7561
" />
<path d="M175.6958 65.3275
L174.1958 65.3275
" />
<path d="M174.1958 66.2561
L175.4101 66.2561
" />
<path d="M175.4101 66.2561
L175.5530 66.3275
" />
<path d="M175.5530 66.3275
L175.6244 66.3989
" />
<path d="M175.6244 66.3989
L175.6958 66.5418
" />
<path d="M175.6958 66.5418
L175.6958 66.8275
" />
<path d="M175.6958 66.8275
L175.6244 66.9704
" />
<path d="M175.6244 66.9704
L175.5530 67.0418
" />
<path d="M175.5530 67.0418
L175.4101 67.1132
" />
<path d="M175.4101 67.1132
L174.1958 67.1132
" />
<path d="M175.6958 68.6847
L174.9815 68.1847
" />
<path d="M175.6958 67.8275
L174.1958 67.8275
" />
<path d="M174.1958 67.8275
L174.1958 68.3989
" />
<path d="M174.1958 68.3989
L174.2673 68.5418
" />
<path d="M174.2673 68.5418
L174.3387 68.6132
" />
<path d="M174.3387 68.6132
L174.4815 68.6847
" />
<path d="M174.4815 68.6847
L174.6958 68.6847
" />
<path d="M174.6958 68.6847
L174.8387 68.6132
" />
<path d="M174.8387 68.6132
L174.9101 68.5418
" />
<path d="M174.9101 68.5418
L174.9815 68.3989
" />
<path d="M174.9815 68.3989
L174.9815 67.8275
" />
<path d="M174.9101 69.3275
L174.9101 69.8275
" />
<path d="M175.6958 70.0418
L175.6958 69.3275
" />
<path d="M175.6958 69.3275
L174.1958 69.3275
" />
<path d="M174.1958 69.3275
L174.1958 70.0418
" />
<path d="M175.1244 71.8275
L175.1244 72.9704
" />
<path d="M175.1244 73.6847
L175.1244 74.8275
" />
<path d="M174.6958 75.5418
L175.1244 76.6847
" />
<path d="M175.1244 76.6847
L175.5530 75.5418
" />
<path d="M175.6244 78.4704
L175.6958 78.6847
" />
<path d="M175.6958 78.6847
L175.6958 79.0418
" />
<path d="M175.6958 79.0418
L175.6244 79.1847
" />
<path d="M175.6244 79.1847
L175.5530 79.2561
" />
<path d="M175.5530 79.2561
L175.4101 79.3275
" />
<path d="M175.4101 79.3275
L175.2673 79.3275
" />
<path d="M175.2673 79.3275
L175.1244 79.2561
" />
<path d="M175.1244 79.2561
L175.0530 79.1847
" />
<path d="M175.0530 79.1847
L174.9815 79.0418
" />
<path d="M174.9815 79.0418
L174.9101 78.7561
" />
<path d="M174.9101 78.7561
L174.8387 78.6132
" />
<path d="M174.8387 78.6132
L174.7673 78.5418
" />
<path d="M174.7673 78.5418
L174.6244 78.4704
" />
<path d="M174.6244 78.4704
L174.4815 78.4704
" />
<path d="M174.4815 78.4704
L174.3387 78.5418
" />
<path d="M174.3387 78.5418
L174.2673 78.6132
" />
<path d="M174.2673 78.6132
L174.1958 78.7561
" />
<path d="M174.1958 78.7561
L174.1958 79.1132
" />
<path d="M174.1958 79.1132
L174.2673 79.3275
" />
<path d="M175.6958 79.9704
L174.1958 79.9704
" />
<path d="M174.1958 79.9704
L174.1958 80.5418
" />
<path d="M174.1958 80.5418
L174.2673 80.6847
" />
<path d="M174.2673 80.6847
L174.3387 80.7561
" />
<path d="M174.3387 80.7561
L174.4815 80.8275
" />
<path d="M174.4815 80.8275
L174.6958 80.8275
" />
<path d="M174.6958 80.8275
L174.8387 80.7561
" />
<path d="M174.8387 80.7561
L174.9101 80.6847
" />
<path d="M174.9101 80.6847
L174.9815 80.5418
" />
<path d="M174.9815 80.5418
L174.9815 79.9704
" />
<path d="M174.9101 81.4704
L174.9101 81.9704
" />
<path d="M175.6958 82.1847
L175.6958 81.4704
" />
<path d="M175.6958 81.4704
L174.1958 81.4704
" />
<path d="M174.1958 81.4704
L174.1958 82.1847
" />
<path d="M174.9101 82.8275
L174.9101 83.3275
" />
<path d="M175.6958 83.5418
L175.6958 82.8275
" />
<path d="M175.6958 82.8275
L174.1958 82.8275
" />
<path d="M174.1958 82.8275
L174.1958 83.5418
" />
<path d="M175.5530 85.0418
L175.6244 84.9704
" />
<path d="M175.6244 84.9704
L175.6958 84.7561
" />
<path d="M175.6958 84.7561
L175.6958 84.6132
" />
<path d="M175.6958 84.6132
L175.6244 84.3989
" />
<path d="M175.6244 84.3989
L175.4815 84.2561
" />
<path d="M175.4815 84.2561
L175.3387 84.1847
" />
<path d="M175.3387 84.1847
L175.0530 84.1132
" />
<path d="M175.0530 84.1132
L174.8387 84.1132
" />
<path d="M174.8387 84.1132
L174.5530 84.1847
" />
<path d="M174.5530 84.1847
L174.4101 84.2561
" />
<path d="M174.4101 84.2561
L174.2673 84.3989
" />
<path d="M174.2673 84.3989
L174.1958 84.6132
" />
<path d="M174.1958 84.6132
L174.1958 84.7561
" />
<path d="M174.1958 84.7561
L174.2673 84.9704
" />
<path d="M174.2673 84.9704
L174.3387 85.0418
" />
<path d="M175.6958 85.6847
L174.1958 85.6847
" />
<path d="M174.9101 85.6847
L174.9101 86.5418
" />
<path d="M175.6958 86.5418
L174.1958 86.5418
" />
</g><g transform="rotate(-90.000000 170.5610 67.9450)">
<text x="170.5610" y="67.9450"
transform="scale(-1 1) translate(-341.122000 0)"
textLength="10.9762" font-size="2.6667" lengthAdjust="spacingAndGlyphs"
text-anchor="start" opacity="0" stroke-opacity="0">078BEI</text>
</g>
<g class="stroked-text"><desc>078BEI</desc>
<path d="M168.3006 68.9995
L168.3006 69.1900
" />
<path d="M168.3006 69.1900
L168.3959 69.3805
" />
<path d="M168.3959 69.3805
L168.4911 69.4757
" />
<path d="M168.4911 69.4757
L168.6816 69.5709
" />
<path d="M168.6816 69.5709
L169.0625 69.6662
" />
<path d="M169.0625 69.6662
L169.5387 69.6662
" />
<path d="M169.5387 69.6662
L169.9197 69.5709
" />
<path d="M169.9197 69.5709
L170.1102 69.4757
" />
<path d="M170.1102 69.4757
L170.2054 69.3805
" />
<path d="M170.2054 69.3805
L170.3006 69.1900
" />
<path d="M170.3006 69.1900
L170.3006 68.9995
" />
<path d="M170.3006 68.9995
L170.2054 68.8090
" />
<path d="M170.2054 68.8090
L170.1102 68.7138
" />
<path d="M170.1102 68.7138
L169.9197 68.6186
" />
<path d="M169.9197 68.6186
L169.5387 68.5233
" />
<path d="M169.5387 68.5233
L169.0625 68.5233
" />
<path d="M169.0625 68.5233
L168.6816 68.6186
" />
<path d="M168.6816 68.6186
L168.4911 68.7138
" />
<path d="M168.4911 68.7138
L168.3959 68.8090
" />
<path d="M168.3959 68.8090
L168.3006 68.9995
" />
<path d="M168.3006 70.3328
L168.3006 71.6662
" />
<path d="M168.3006 71.6662
L170.3006 70.8090
" />
<path d="M169.1578 72.7138
L169.0625 72.5233
" />
<path d="M169.0625 72.5233
L168.9673 72.4281
" />
<path d="M168.9673 72.4281
L168.7768 72.3328
" />
<path d="M168.7768 72.3328
L168.6816 72.3328
" />
<path d="M168.6816 72.3328
L168.4911 72.4281
" />
<path d="M168.4911 72.4281
L168.3959 72.5233
" />
<path d="M168.3959 72.5233
L168.3006 72.7138
" />
<path d="M168.3006 72.7138
L168.3006 73.0947
" />
<path d="M168.3006 73.0947
L168.3959 73.2852
" />
<path d="M168.3959 73.2852
L168.4911 73.3805
" />
<path d="M168.4911 73.3805
L168.6816 73.4757
" />
<path d="M168.6816 73.4757
L168.7768 73.4757
" />
<path d="M168.7768 73.4757
L168.9673 73.3805
" />
<path d="M168.9673 73.3805
L169.0625 73.2852
" />
<path d="M169.0625 73.2852
L169.1578 73.0947
" />
<path d="M169.1578 73.0947
L169.1578 72.7138
" />
<path d="M169.1578 72.7138
L169.2530 72.5233
" />
<path d="M169.2530 72.5233
L169.3483 72.4281
" />
<path d="M169.3483 72.4281
L169.5387 72.3328
" />
<path d="M169.5387 72.3328
L169.9197 72.3328
" />
<path d="M169.9197 72.3328
L170.1102 72.4281
" />
<path d="M170.1102 72.4281
L170.2054 72.5233
" />
<path d="M170.2054 72.5233
L170.3006 72.7138
" />
<path d="M170.3006 72.7138
L170.3006 73.0947
" />
<path d="M170.3006 73.0947
L170.2054 73.2852
" />
<path d="M170.2054 73.2852
L170.1102 73.3805
" />
<path d="M170.1102 73.3805
L169.9197 73.4757
" />
<path d="M169.9197 73.4757
L169.5387 73.4757
" />
<path d="M169.5387 73.4757
L169.3483 73.3805
" />
<path d="M169.3483 73.3805
L169.2530 73.2852
" />
<path d="M169.2530 73.2852
L169.1578 73.0947
" />
<path d="M169.2530 74.9995
L169.3483 75.2852
" />
<path d="M169.3483 75.2852
L169.4435 75.3805
" />
<path d="M169.4435 75.3805
L169.6340 75.4757
" />
<path d="M169.6340 75.4757
L169.9197 75.4757
" />
<path d="M169.9197 75.4757
L170.1102 75.3805
" />
<path d="M170.1102 75.3805
L170.2054 75.2852
" />
<path d="M170.2054 75.2852
L170.3006 75.0947
" />
<path d="M170.3006 75.0947
L170.3006 74.3328
" />
<path d="M170.3006 74.3328
L168.3006 74.3328
" />
<path d="M168.3006 74.3328
L168.3006 74.9995
" />
<path d="M168.3006 74.9995
L168.3959 75.1900
" />
<path d="M168.3959 75.1900
L168.4911 75.2852
" />
<path d="M168.4911 75.2852
L168.6816 75.3805
" />
<path d="M168.6816 75.3805
L168.8721 75.3805
" />
<path d="M168.8721 75.3805
L169.0625 75.2852
" />
<path d="M169.0625 75.2852
L169.1578 75.1900
" />
<path d="M169.1578 75.1900
L169.2530 74.9995
" />
<path d="M169.2530 74.9995
L169.2530 74.3328
" />
<path d="M169.2530 76.3328
L169.2530 76.9995
" />
<path d="M170.3006 77.2852
L170.3006 76.3328
" />
<path d="M170.3006 76.3328
L168.3006 76.3328
" />
<path d="M168.3006 76.3328
L168.3006 77.2852
" />
<path d="M170.3006 78.1424
L168.3006 78.1424
" />
</g><g transform="rotate(-90.000000 148.4553 66.4210)">
<text x="148.4553" y="66.4210"
transform="scale(-1 1) translate(-296.910672 0)"
textLength="4.3095" font-size="2.6667" lengthAdjust="spacingAndGlyphs"
text-anchor="start" opacity="0" stroke-opacity="0">13</text>
</g>
<g class="stroked-text"><desc>13</desc>
<path d="M148.1950 68.1422
L148.1950 66.9993
" />
<path d="M148.1950 67.5707
L146.1950 67.5707
" />
<path d="M146.1950 67.5707
L146.4807 67.3803
" />
<path d="M146.4807 67.3803
L146.6712 67.1898
" />
<path d="M146.6712 67.1898
L146.7664 66.9993
" />
<path d="M146.1950 68.8088
L146.1950 70.0469
" />
<path d="M146.1950 70.0469
L146.9569 69.3803
" />
<path d="M146.9569 69.3803
L146.9569 69.6660
" />
<path d="M146.9569 69.6660
L147.0521 69.8565
" />
<path d="M147.0521 69.8565
L147.1474 69.9517
" />
<path d="M147.1474 69.9517
L147.3378 70.0469
" />
<path d="M147.3378 70.0469
L147.8140 70.0469
" />
<path d="M147.8140 70.0469
L148.0045 69.9517
" />
<path d="M148.0045 69.9517
L148.0997 69.8565
" />
<path d="M148.0997 69.8565
L148.1950 69.6660
" />
<path d="M148.1950 69.6660
L148.1950 69.0946
" />
<path d="M148.1950 69.0946
L148.0997 68.9041
" />
<path d="M148.0997 68.9041
L148.0045 68.8088
" />
</g><g transform="rotate(-90.000000 151.6752 66.4210)">
<text x="151.6752" y="66.4210"
transform="scale(-1 1) translate(-303.350448 0)"
textLength="4.3095" font-size="2.6667" lengthAdjust="spacingAndGlyphs"
text-anchor="start" opacity="0" stroke-opacity="0">34</text>
</g>
<g class="stroked-text"><desc>34</desc>
<path d="M149.4149 66.9041
L149.4149 68.1422
" />
<path d="M149.4149 68.1422
L150.1768 67.4755
" />
<path d="M150.1768 67.4755
L150.1768 67.7612
" />
<path d="M150.1768 67.7612
L150.2720 67.9517
" />
<path d="M150.2720 67.9517
L150.3672 68.0469
" />
<path d="M150.3672 68.0469
L150.5577 68.1422
" />
<path d="M150.5577 68.1422
L151.0339 68.1422
" />
<path d="M151.0339 68.1422
L151.2244 68.0469
" />
<path d="M151.2244 68.0469
L151.3196 67.9517
" />
<path d="M151.3196 67.9517
L151.4149 67.7612
" />
<path d="M151.4149 67.7612
L151.4149 67.1898
" />
<path d="M151.4149 67.1898
L151.3196 66.9993
" />
<path d="M151.3196 66.9993
L151.2244 66.9041
" />
<path d="M150.0815 69.8565
L151.4149 69.8565
" />
<path d="M149.3196 69.3803
L150.7482 68.9041
" />
<path d="M150.7482 68.9041
L150.7482 70.1422
" />
</g><g transform="rotate(-90.000000 154.8951 66.4210)">
<text x="154.8951" y="66.4210"
transform="scale(-1 1) translate(-309.790224 0)"
textLength="4.3095" font-size="2.6667" lengthAdjust="spacingAndGlyphs"
text-anchor="start" opacity="0" stroke-opacity="0">35</text>
</g>
<g class="stroked-text"><desc>35</desc>
<path d="M152.6347 66.9041
L152.6347 68.1422
" />
<path d="M152.6347 68.1422
L153.3967 67.4755
" />
<path d="M153.3967 67.4755
L153.3967 67.7612
" />
<path d="M153.3967 67.7612
L153.4919 67.9517
" />
<path d="M153.4919 67.9517
L153.5871 68.0469
" />
<path d="M153.5871 68.0469
L153.7776 68.1422
" />
<path d="M153.7776 68.1422
L154.2538 68.1422
" />
<path d="M154.2538 68.1422
L154.4443 68.0469
" />
<path d="M154.4443 68.0469
L154.5395 67.9517
" />
<path d="M154.5395 67.9517
L154.6347 67.7612
" />
<path d="M154.6347 67.7612
L154.6347 67.1898
" />
<path d="M154.6347 67.1898
L154.5395 66.9993
" />
<path d="M154.5395 66.9993
L154.4443 66.9041
" />
<path d="M152.6347 69.9517
L152.6347 68.9993
" />
<path d="M152.6347 68.9993
L153.5871 68.9041
" />
<path d="M153.5871 68.9041
L153.4919 68.9993
" />
<path d="M153.4919 68.9993
L153.3967 69.1898
" />
<path d="M153.3967 69.1898
L153.3967 69.6660
" />
<path d="M153.3967 69.6660
L153.4919 69.8565
" />
<path d="M153.4919 69.8565
L153.5871 69.9517
" />
<path d="M153.5871 69.9517
L153.7776 70.0469
" />
<path d="M153.7776 70.0469
L154.2538 70.0469
" />
<path d="M154.2538 70.0469
L154.4443 69.9517
" />
<path d="M154.4443 69.9517
L154.5395 69.8565
" />
<path d="M154.5395 69.8565
L154.6347 69.6660
" />
<path d="M154.6347 69.6660
L154.6347 69.1898
" />
<path d="M154.6347 69.1898
L154.5395 68.9993
" />
<path d="M154.5395 68.9993
L154.4443 68.9041
" />
</g><g transform="rotate(-90.000000 158.1150 66.4210)">
<text x="158.1150" y="66.4210"
transform="scale(-1 1) translate(-316.230000 0)"
textLength="4.3095" font-size="2.6667" lengthAdjust="spacingAndGlyphs"
text-anchor="start" opacity="0" stroke-opacity="0">46</text>
</g>
<g class="stroked-text"><desc>46</desc>
<path d="M156.5213 67.9517
L157.8546 67.9517
" />
<path d="M155.7594 67.4755
L157.1880 66.9993
" />
<path d="M157.1880 66.9993
L157.1880 68.2374
" />
<path d="M155.8546 69.8565
L155.8546 69.4755
" />
<path d="M155.8546 69.4755
L155.9499 69.2850
" />
<path d="M155.9499 69.2850
L156.0451 69.1898
" />
<path d="M156.0451 69.1898
L156.3308 68.9993
" />
<path d="M156.3308 68.9993
L156.7118 68.9041
" />
<path d="M156.7118 68.9041
L157.4737 68.9041
" />
<path d="M157.4737 68.9041
L157.6642 68.9993
" />
<path d="M157.6642 68.9993
L157.7594 69.0946
" />
<path d="M157.7594 69.0946
L157.8546 69.2850
" />
<path d="M157.8546 69.2850
L157.8546 69.6660
" />
<path d="M157.8546 69.6660
L157.7594 69.8565
" />
<path d="M157.7594 69.8565
L157.6642 69.9517
" />
<path d="M157.6642 69.9517
L157.4737 70.0469
" />
<path d="M157.4737 70.0469
L156.9975 70.0469
" />
<path d="M156.9975 70.0469
L156.8070 69.9517
" />
<path d="M156.8070 69.9517
L156.7118 69.8565
" />
<path d="M156.7118 69.8565
L156.6165 69.6660
" />
<path d="M156.6165 69.6660
L156.6165 69.2850
" />
<path d="M156.6165 69.2850
L156.7118 69.0946
" />
<path d="M156.7118 69.0946
L156.8070 68.9993
" />
<path d="M156.8070 68.9993
L156.9975 68.9041
" />
</g></g>
<g style="fill:none; 
stroke:#000000; stroke-width:1.7000; stroke-opacity:1; 
stroke-linecap:round; stroke-linejoin:round;">
<path d="M131.4300 69.2900
L132.7300 69.2900
" />
<path d="M131.4300 71.8300
L132.7300 71.8300
" />
<path d="M131.4300 74.3700
L132.7300 74.3700
" />
<path d="M131.4300 76.9100
L132.7300 76.9100
" />
<path d="M134.2340 99.5310
L134.2340 98.2310
" />
<path d="M136.7740 99.5310
L136.7740 98.2310
" />
<path d="M158.3690 99.5310
L158.3690 98.2310
" />
<path d="M160.9090 99.5310
L160.9090 98.2310
" />
<path d="M170.5560 99.5310
L170.5560 98.2310
" />
<path d="M173.0960 99.5310
L173.0960 98.2310
" />
</g>
<g style="fill:none; 
stroke:#000000; stroke-width:2.0000; stroke-opacity:1; 
stroke-linecap:round; stroke-linejoin:round;">
<path d="M139.5730 104.2070
L139.5730 103.2070
" />
<path d="M139.5730 94.0470
L139.5730 93.0470
" />
<path d="M145.6690 104.2070
L145.6690 103.2070
" />
<path d="M145.6690 94.0470
L145.6690 93.0470
" />
</g>
<g style="fill:none; 
stroke:#000000; stroke-width:1.7000; stroke-opacity:1; 
stroke-linecap:round; stroke-linejoin:round;">
<path d="M164.4600 99.5310
L164.4600 98.2310
" />
<path d="M167.0000 99.5310
L167.0000 98.2310
" />
<path d="M140.0760 99.5310
L140.0760 98.2310
" />
<path d="M142.6160 99.5310
L142.6160 98.2310
" />
</g>
<g style="fill:none; 
stroke:#000000; stroke-width:2.0000; stroke-opacity:1; 
stroke-linecap:round; stroke-linejoin:round;">
<path d="M151.7650 104.2070
L151.7650 103.2070
" />
<path d="M151.7650 94.0470
L151.7650 93.0470
" />
</g>
<g style="fill:none; 
stroke:#000000; stroke-width:1.7000; stroke-opacity:1; 
stroke-linecap:round; stroke-linejoin:round;">
<path d="M127.6300 99.5310
L127.6300 98.2310
" />
<path d="M130.1700 99.5310
L130.1700 98.2310
" />
<path d="M146.1720 99.5310
L146.1720 98.2310
" />
<path d="M148.7120 99.5310
L148.7120 98.2310
" />
</g>
<g style="fill:none; 
stroke:#000000; stroke-width:1.5240; stroke-opacity:1; 
stroke-linecap:round; stroke-linejoin:round;">
<path d="M129.9210 86.7730
L129.9210 85.7970
" />
<path d="M132.4610 86.8480
L132.4610 85.8720
" />
<path d="M135.0010 86.8480
L135.0010 85.8720
" />
<path d="M137.5410 86.8480
L137.5410 85.8720
" />
<path d="M140.0810 86.8480
L140.0810 85.8720
" />
<path d="M142.6210 86.8480
L142.6210 85.8720
" />
<path d="M145.1610 86.8480
L145.1610 85.8720
" />
<path d="M147.7010 86.8480
L147.7010 85.8720
" />
<path d="M150.2410 86.8480
L150.2410 85.8720
" />
<path d="M152.7810 86.8480
L152.7810 85.8720
" />
<path d="M155.3210 86.8480
L155.3210 85.8720
" />
<path d="M157.8610 86.8480
L157.8610 85.8720
" />
<path d="M160.4010 86.8480
L160.4010 85.8720
" />
<path d="M162.9410 86.8480
L162.9410 85.8720
" />
<path d="M165.4810 86.8480
L165.4810 85.8720
" />
<path d="M165.4810 61.5230
L165.4810 60.5470
" />
<path d="M162.9410 61.4480
L162.9410 60.4720
" />
<path d="M160.4010 61.4480
L160.4010 60.4720
" />
<path d="M157.8610 61.4480
L157.8610 60.4720
" />
<path d="M155.3210 61.4480
L155.3210 60.4720
" />
<path d="M152.7810 61.4480
L152.7810 60.4720
" />
<path d="M150.2410 61.4480
L150.2410 60.4720
" />
<path d="M147.7010 61.4480
L147.7010 60.4720
" />
<path d="M145.1610 61.4480
L145.1610 60.4720
" />
<path d="M142.6210 61.4480
L142.6210 60.4720
" />
<path d="M140.0810 61.4480
L140.0810 60.4720
" />
<path d="M137.5410 61.4480
L137.5410 60.4720
" />
<path d="M135.0010 61.4480
L135.0010 60.4720
" />
<path d="M132.4610 61.4480
L132.4610 60.4720
" />
<path d="M129.9210 61.4480
L129.9210 60.4720
" />
</g>
<g style="fill:none; 
stroke:#000000; stroke-width:1.7000; stroke-opacity:1; 
stroke-linecap:round; stroke-linejoin:round;">
<path d="M152.2730 99.2770
L152.2730 97.9770
" />
<path d="M154.8130 99.2770
L154.8130 97.9770
" />
<path d="M175.7680 103.3110
L175.7680 104.6110
" />
<path d="M173.2280 103.3110
L173.2280 104.6110
" />
</g>
<g style="fill:none; 
stroke:#000000; stroke-width:2.0000; stroke-opacity:1; 
stroke-linecap:round; stroke-linejoin:round;">
<path d="M133.4770 104.2070
L133.4770 103.2070
" />
<path d="M133.4770 94.0470
L133.4770 93.0470
" />
<path d="M170.0530 104.2070
L170.0530 103.2070
" />
<path d="M170.0530 94.0470
L170.0530 93.0470
" />
<path d="M157.8610 104.2070
L157.8610 103.2070
" />
<path d="M157.8610 94.0470
L157.8610 93.0470
" />
<path d="M163.9570 104.2070
L163.9570 103.2070
" />
<path d="M163.9570 94.0470
L163.9570 93.0470
" />
<path d="M127.3810 104.2070
L127.3810 103.2070
" />
<path d="M127.3810 94.0470
L127.3810 93.0470
" />
</g>
<g style="fill:none; 
stroke:#000000; stroke-width:0.7000; stroke-opacity:1; 
stroke-linecap:round; stroke-linejoin:round;">
<path d="M165.4810 61.0350
L165.4810 68.5800
" />
<path d="M165.4810 68.5800
L152.7060 81.3550
" />
<path d="M152.7060 81.3550
L131.6990 81.3550
" />
<path d="M131.6990 81.3550
L129.3495 83.7045
" />
<path d="M132.0800 74.3700
L135.5090 74.3700
" />
<path d="M135.5090 74.3700
L137.4140 72.4650
" />
<path d="M137.4140 72.4650
L137.4140 67.8930
" />
<path d="M137.4140 67.8930
L132.4610 62.9400
" />
<path d="M132.4610 62.9400
L132.4610 60.9600
" />
<path d="M140.0810 60.9600
L140.0810 73.7350
" />
<path d="M140.0810 73.7350
L136.9060 76.9100
" />
<path d="M136.9060 76.9100
L132.0800 76.9100
" />
<path d="M163.9570 93.5470
L163.9570 92.0536
" />
<path d="M163.2914 91.3880
L159.3350 91.3880
" />
<path d="M163.9570 92.0536
L163.2914 91.3880
" />
<path d="M159.3350 91.3880
L155.3210 87.3740
" />
<path d="M155.3210 87.3740
L155.3210 86.3600
" />
<path d="M170.0530 93.5470
L170.0530 91.6650
" />
<path d="M170.0530 91.6650
L168.2690 89.8810
" />
<path d="M168.2690 89.8810
L162.4500 89.8810
" />
<path d="M160.4010 87.8320
L160.4010 86.3600
" />
<path d="M162.4500 89.8810
L160.4010 87.8320
" />
<path d="M165.4810 86.3600
L169.4700 86.3600
" />
<path d="M169.4700 86.3600
L175.7680 92.6580
" />
<path d="M175.7680 92.6580
L175.7680 103.9610
" />
<path d="M129.3495 83.7045
L128.5240 82.8790
" />
<path d="M128.5240 82.8790
L128.5240 70.5600
" />
<path d="M128.5240 70.5600
L129.7940 69.2900
" />
<path d="M129.7940 69.2900
L132.0800 69.2900
" />
<path d="M129.3495 83.7045
L123.7690 89.2850
" />
<path d="M160.9090 98.8810
L160.9090 97.2300
" />
<path d="M160.9090 97.2300
L157.8610 94.1820
" />
<path d="M157.8610 94.1820
L157.8610 93.5470
" />
<path d="M130.1700 98.8810
L130.1700 97.3520
" />
<path d="M130.1700 97.3520
L127.3810 94.5630
" />
<path d="M127.3810 94.5630
L127.3810 93.5470
" />
<path d="M142.6210 98.8810
L142.6210 97.3570
" />
<path d="M142.6210 97.3570
L139.5730 94.3090
" />
<path d="M139.5730 94.3090
L139.5730 93.5470
" />
<path d="M148.7170 98.8810
L148.7170 97.2300
" />
<path d="M148.7170 97.2300
L145.6690 94.1820
" />
<path d="M145.6690 94.1820
L145.6690 93.5470
" />
<path d="M154.8130 98.8810
L154.8130 97.2300
" />
<path d="M154.8130 97.2300
L151.7650 94.1820
" />
<path d="M151.7650 94.1820
L151.7650 93.5470
" />
<path d="M173.1010 98.8810
L173.1010 97.6110
" />
<path d="M173.1010 97.6110
L170.0530 94.5630
" />
<path d="M170.0530 94.5630
L170.0530 93.5470
" />
<path d="M167.0050 98.8810
L167.0050 96.7220
" />
<path d="M167.0050 96.7220
L163.9570 93.6740
" />
<path d="M163.9570 93.6740
L163.9570 93.5470
" />
<path d="M127.3810 93.5470
L127.3810 91.6420
" />
<path d="M127.3810 91.6420
L129.1420 89.8810
" />
<path d="M129.1420 89.8810
L137.3970 89.8810
" />
<path d="M137.3970 89.8810
L140.0810 87.1970
" />
<path d="M140.0810 87.1970
L140.0810 86.3600
" />
<path d="M123.7690 89.2850
L123.7690 101.3810
" />
<path d="M123.7690 101.3810
L126.0950 103.7070
" />
<path d="M126.0950 103.7070
L127.3810 103.7070
" />
<path d="M127.3810 103.7070
L170.0530 103.7070
" />
<path d="M135.6030 93.5470
L138.7690 90.3810
" />
<path d="M133.4770 93.5470
L135.6030 93.5470
" />
<path d="M138.7690 90.3810
L140.2690 90.3810
" />
<path d="M142.6210 88.0290
L142.6210 86.3600
" />
<path d="M133.4770 94.8170
L133.4770 93.5470
" />
<path d="M136.5250 98.8810
L136.5250 97.8650
" />
<path d="M140.2690 90.3810
L142.6210 88.0290
" />
<path d="M136.5250 97.8650
L133.4770 94.8170
" />
<path d="M139.5730 93.5470
L145.1610 87.9590
" />
<path d="M145.1610 87.9590
L145.1610 86.3600
" />
<path d="M145.6690 91.9810
L147.7690 89.8810
" />
<path d="M145.6690 93.5470
L145.6690 91.9810
" />
<path d="M147.7690 89.8810
L147.7690 86.4280
" />
<path d="M147.7690 86.4280
L147.7010 86.3600
" />
<path d="M151.7650 93.5470
L151.7650 89.3770
" />
<path d="M150.2410 87.8530
L150.2410 86.3600
" />
<path d="M151.7650 89.3770
L150.2410 87.8530
" />
<path d="M157.8610 92.2237
L152.7690 87.1317
" />
<path d="M152.7690 86.3720
L152.7810 86.3600
" />
<path d="M157.8610 93.5470
L157.8610 92.2237
" />
<path d="M152.7690 87.1317
L152.7690 86.3720
" />
<path style="fill:#000000; fill-opacity:1.0000; stroke:none;fill-rule:evenodd;"
d="M 163.1910,62.6861
163.2365,62.6789
163.4254,62.6175
163.6024,62.5274
163.7631,62.4106
163.7631,62.4106
163.9036,62.2701
163.9036,62.2701
164.0204,62.1094
164.0821,61.9882
164.1301,61.9374
164.1979,61.9206
164.2640,61.9432
164.3075,61.9979
164.3105,62.0062
164.3110,62.0076
164.3110,62.0076
164.3630,62.1097
164.4012,62.1847
164.5180,62.3455
164.5180,62.3455
164.5942,62.4216
164.6277,62.4829
164.6305,62.5093
164.6305,68.1763
164.6108,68.2434
164.5942,68.2640
152.3900,80.4682
152.3287,80.5017
152.3023,80.5045
131.6152,80.5045
131.4509,80.5372
131.4509,80.5372
131.4056,80.5560
131.2961,80.6013
131.2961,80.6013
131.1568,80.6944
131.1568,80.6944
129.5862,82.2650
129.5249,82.2985
129.4552,82.2935
129.3992,82.2517
129.3748,82.1862
129.3745,82.1773
129.3745,70.9637
129.3942,70.8966
129.4108,70.8760
130.1100,70.1768
130.1369,70.1621
130.1627,70.1455
130.1689,70.1446
130.1713,70.1433
130.1976,70.1405
130.3192,70.1405
130.3863,70.1602
130.4069,70.1768
130.5502,70.3201
130.7222,70.4450
130.7222,70.4450
130.7222,70.4451
130.7315,70.4498
130.7823,70.4978
130.7991,70.5656
130.7766,70.6317
130.7315,70.6708
130.7224,70.6754
130.5505,70.8003
130.5505,70.8003
130.4003,70.9505
130.4003,70.9505
130.2754,71.1224
130.1789,71.3118
130.1132,71.5139
130.1132,71.5139
130.1028,71.5800
131.6470,71.5800
131.6141,71.6370
131.5800,71.7642
131.5800,71.8958
131.6141,72.0230
131.6470,72.0800
130.1028,72.0800
130.1132,72.1461
130.1132,72.1461
130.1789,72.3482
130.2754,72.5376
130.4003,72.7095
130.4003,72.7095
130.5505,72.8597
130.5505,72.8597
130.7224,72.9846
130.7315,72.9892
130.7823,73.0372
130.7991,73.1050
130.7765,73.1712
130.7315,73.2102
130.7222,73.2149
130.5502,73.3399
130.3999,73.4902
130.2750,73.6622
130.1784,73.8516
130.1128,74.0538
130.1027,74.1175
130.0795,74.2637
130.0795,74.4763
130.1128,74.6862
130.1258,74.7265
130.1784,74.8884
130.2750,75.0778
130.3999,75.2498
130.5502,75.4001
130.7222,75.5250
130.7309,75.5295
130.7817,75.5775
130.7985,75.6453
130.7760,75.7114
130.7309,75.7505
130.7222,75.7549
130.5502,75.8799
130.3999,76.0302
130.2750,76.2022
130.1784,76.3916
130.1128,76.5938
130.0795,76.8037
130.0795,77.0163
130.1128,77.2262
130.1784,77.4284
130.2750,77.6178
130.3999,77.7898
130.5502,77.9401
130.7222,78.0650
130.7222,78.0650
130.7222,78.0651
130.9116,78.1616
131.1138,78.2272
131.3237,78.2605
131.3237,78.2605
132.8363,78.2605
132.8363,78.2605
133.0462,78.2272
133.2484,78.1616
133.4378,78.0651
133.4598,78.0491
133.6098,77.9401
133.6098,77.9401
133.6098,77.9401
133.7531,77.7968
133.8144,77.7633
133.8408,77.7605
136.9898,77.7605
136.9898,77.7605
137.0445,77.7496
137.1541,77.7278
137.1541,77.7278
137.1541,77.7278
137.1994,77.7090
137.3089,77.6637
137.4482,77.5706
140.6991,74.3196
148.0515,74.3196
148.0515,74.5244
148.0835,74.7265
148.1468,74.9212
148.2025,75.0306
148.2266,75.0778
148.2397,75.1036
148.3600,75.2692
148.5048,75.4140
148.6577,75.5250
148.6704,75.5343
148.7866,75.5935
148.8528,75.6272
148.8528,75.6272
148.8528,75.6272
148.9571,75.6611
149.0475,75.6905
149.1235,75.7025
149.2496,75.7225
149.2496,75.7225
149.4544,75.7225
149.4544,75.7225
149.6565,75.6905
149.8512,75.6272
150.0336,75.5343
150.1266,75.4667
150.1992,75.4140
150.1992,75.4140
150.1992,75.4140
150.3440,75.2692
150.3440,75.2692
150.3440,75.2692
150.4031,75.1878
150.4643,75.1036
150.5572,74.9212
150.6205,74.7265
150.6525,74.5244
150.6525,74.3196
150.6205,74.1175
150.5572,73.9228
150.5572,73.9228
150.5572,73.9228
150.5042,73.8188
150.4643,73.7404
150.4566,73.7297
150.3440,73.5748
150.1992,73.4300
150.0336,73.3097
150.0336,73.3097
150.0336,73.3097
149.9767,73.2807
149.8512,73.2168
149.6565,73.1535
149.4820,73.1259
149.4544,73.1215
149.2496,73.1215
149.2253,73.1254
149.0475,73.1535
148.8528,73.2168
148.6704,73.3097
148.5048,73.4300
148.3600,73.5748
148.2397,73.7404
148.1468,73.9228
148.0835,74.1175
148.0515,74.3196
140.6991,74.3196
140.7416,74.2772
140.8347,74.1379
140.8988,73.9831
140.9020,73.9671
140.9315,73.8188
140.9315,70.7977
145.5366,70.7977
158.5119,70.7977
158.5119,66.2486
145.5366,66.2486
145.5366,70.7977
140.9315,70.7977
140.9315,62.4343
140.9512,62.3673
140.9678,62.3466
140.9690,62.3455
141.0440,62.2705
141.1608,62.1097
141.2405,61.9532
141.2885,61.9024
141.3563,61.8856
141.4224,61.9082
141.4615,61.9532
141.5412,62.1097
141.6580,62.2705
141.7985,62.4110
141.9593,62.5278
142.0278,62.5627
142.1364,62.6180
142.1364,62.6180
142.2309,62.6487
142.3254,62.6794
142.5216,62.7105
142.5216,62.7105
142.7204,62.7105
142.7204,62.7105
142.9166,62.6794
143.1056,62.6180
143.2827,62.5278
143.4435,62.4110
143.5840,62.2705
143.7008,62.1097
143.7805,61.9532
143.8285,61.9024
143.8963,61.8856
143.9624,61.9082
144.0015,61.9532
144.0812,62.1097
144.1980,62.2705
144.3385,62.4110
144.4993,62.5278
144.5678,62.5627
144.6764,62.6180
144.6764,62.6180
144.7709,62.6487
144.8654,62.6794
145.0616,62.7105
145.0616,62.7105
145.2604,62.7105
145.2604,62.7105
145.4566,62.6794
145.6456,62.6180
145.8227,62.5278
145.9835,62.4110
146.1240,62.2705
146.2408,62.1097
146.3205,61.9532
146.3685,61.9024
146.4363,61.8856
146.5024,61.9082
146.5415,61.9532
146.6212,62.1097
146.7380,62.2705
146.8785,62.4110
147.0393,62.5278
147.1078,62.5627
147.2164,62.6180
147.2164,62.6180
147.3109,62.6487
147.4054,62.6794
147.6016,62.7105
147.6016,62.7105
147.8004,62.7105
147.8004,62.7105
147.9966,62.6794
148.1856,62.6180
148.3627,62.5278
148.5235,62.4110
148.6640,62.2705
148.7808,62.1097
148.8605,61.9532
148.9085,61.9024
148.9763,61.8856
149.0424,61.9082
149.0815,61.9532
149.1612,62.1097
149.2780,62.2705
149.4185,62.4110
149.5793,62.5278
149.6478,62.5627
149.7564,62.6180
149.7564,62.6180
149.8509,62.6487
149.9454,62.6794
150.1416,62.7105
150.1416,62.7105
150.3404,62.7105
150.3404,62.7105
150.5366,62.6794
150.7256,62.6180
150.9027,62.5278
151.0635,62.4110
151.2040,62.2705
151.3208,62.1097
151.4005,61.9532
151.4485,61.9024
151.5163,61.8856
151.5824,61.9082
151.6215,61.9532
151.7012,62.1097
151.8180,62.2705
151.9585,62.4110
152.1193,62.5278
152.1878,62.5627
152.2964,62.6180
152.2964,62.6180
152.3909,62.6487
152.4854,62.6794
152.6816,62.7105
152.6816,62.7105
152.8804,62.7105
152.8804,62.7105
153.0766,62.6794
153.2656,62.6180
153.4427,62.5278
153.6035,62.4110
153.7440,62.2705
153.8608,62.1097
153.9405,61.9532
153.9885,61.9024
154.0563,61.8856
154.1224,61.9082
154.1615,61.9532
154.2412,62.1097
154.3580,62.2705
154.4985,62.4110
154.6593,62.5278
154.7278,62.5627
154.8364,62.6180
154.8364,62.6180
154.9309,62.6487
155.0254,62.6794
155.2216,62.7105
155.2216,62.7105
155.4204,62.7105
155.4204,62.7105
155.6166,62.6794
155.8056,62.6180
155.9827,62.5278
156.1435,62.4110
156.2840,62.2705
156.4008,62.1097
156.4805,61.9532
156.5285,61.9024
156.5963,61.8856
156.6624,61.9082
156.7015,61.9532
156.7812,62.1097
156.8980,62.2705
157.0385,62.4110
157.1993,62.5278
157.2678,62.5627
157.3764,62.6180
157.3764,62.6180
157.4709,62.6487
157.5654,62.6794
157.7616,62.7105
157.7616,62.7105
157.9604,62.7105
157.9604,62.7105
158.1566,62.6794
158.3456,62.6180
158.5227,62.5278
158.6835,62.4110
158.8240,62.2705
158.9408,62.1097
159.0205,61.9532
159.0685,61.9024
159.1363,61.8856
159.2024,61.9082
159.2415,61.9532
159.3212,62.1097
159.4380,62.2705
159.5785,62.4110
159.7393,62.5278
159.8078,62.5627
159.9164,62.6180
159.9164,62.6180
160.0109,62.6487
160.1054,62.6794
160.3016,62.7105
160.3016,62.7105
160.5004,62.7105
160.5004,62.7105
160.6966,62.6794
160.8856,62.6180
161.0627,62.5278
161.2235,62.4110
161.3640,62.2705
161.4808,62.1097
161.5608,61.9527
161.6088,61.9019
161.6766,61.8851
161.7427,61.9076
161.7818,61.9527
161.8616,62.1094
161.9784,62.2701
161.9784,62.2701
162.1189,62.4106
162.2796,62.5274
162.4566,62.6175
162.6455,62.6789
162.6910,62.6861
162.6910,61.3930
162.7480,61.4259
162.8752,61.4600
163.0068,61.4600
163.1340,61.4259
163.1910,61.3930
Z" /> 
<path style="fill:#000000; fill-opacity:1.0000; stroke:none;fill-rule:evenodd;"
d="M 177.4735,57.6472
177.5193,57.7000
177.5305,57.7515
177.5305,106.9465
177.5108,107.0135
177.4580,107.0593
177.4065,107.0705
121.8855,107.0705
121.8185,107.0508
121.7727,106.9980
121.7615,106.9465
121.7615,89.2012
122.9185,89.2012
122.9185,101.4648
122.9512,101.6291
122.9512,101.6291
123.0153,101.7839
123.0153,101.7839
123.1084,101.9232
123.1084,101.9232
125.5528,104.3676
125.5528,104.3676
125.6921,104.4607
125.6921,104.4607
125.6921,104.4607
125.7946,104.5032
125.8469,104.5248
125.8513,104.5257
125.8610,104.5295
125.8845,104.5480
125.9096,104.5644
125.9127,104.5701
125.9160,104.5726
125.9190,104.5813
125.9331,104.6064
125.9904,104.7830
126.0977,104.9934
126.2365,105.1845
126.4035,105.3515
126.5946,105.4903
126.6940,105.5410
126.8050,105.5976
126.8050,105.5976
126.8050,105.5976
126.9254,105.6367
127.0296,105.6706
127.2629,105.7075
127.2629,105.7075
127.4991,105.7075
127.7324,105.6706
127.9570,105.5976
128.1674,105.4903
128.3585,105.3515
128.5255,105.1845
128.6643,104.9934
128.7716,104.7830
128.8170,104.6432
128.8564,104.5855
128.9208,104.5583
128.9349,104.5575
131.9231,104.5575
131.9901,104.5772
132.0359,104.6300
132.0410,104.6432
132.0864,104.7830
132.1937,104.9934
132.3325,105.1845
132.4995,105.3515
132.6906,105.4903
132.7900,105.5410
132.9010,105.5976
132.9010,105.5976
132.9010,105.5976
133.0214,105.6367
133.1256,105.6706
133.3589,105.7075
133.3589,105.7075
133.5951,105.7075
133.8284,105.6706
134.0530,105.5976
134.2634,105.4903
134.4545,105.3515
134.6215,105.1845
134.7603,104.9934
134.8676,104.7830
134.9130,104.6432
134.9524,104.5855
135.0168,104.5583
135.0309,104.5575
138.0191,104.5575
138.0861,104.5772
138.1319,104.6300
138.1370,104.6432
138.1824,104.7830
138.2897,104.9934
138.4285,105.1845
138.5955,105.3515
138.7866,105.4903
138.8860,105.5410
138.9970,105.5976
138.9970,105.5976
138.9970,105.5976
139.1174,105.6367
139.2216,105.6706
139.4549,105.7075
139.4549,105.7075
139.6911,105.7075
139.9244,105.6706
140.1490,105.5976
140.3594,105.4903
140.5505,105.3515
140.7175,105.1845
140.8563,104.9934
140.9636,104.7830
141.0090,104.6432
141.0484,104.5855
141.1128,104.5583
141.1269,104.5575
144.1151,104.5575
144.1821,104.5772
144.2279,104.6300
144.2330,104.6432
144.2784,104.7830
144.3857,104.9934
144.5245,105.1845
144.6915,105.3515
144.8826,105.4903
144.9820,105.5410
145.0930,105.5976
145.0930,105.5976
145.0930,105.5976
145.2134,105.6367
145.3176,105.6706
145.5509,105.7075
145.5509,105.7075
145.7871,105.7075
146.0204,105.6706
146.2450,105.5976
146.4554,105.4903
146.6465,105.3515
146.8135,105.1845
146.9523,104.9934
147.0596,104.7830
147.1050,104.6432
147.1444,104.5855
147.2088,104.5583
147.2229,104.5575
150.2111,104.5575
150.2781,104.5772
150.3239,104.6300
150.3290,104.6432
150.3744,104.7830
150.4817,104.9934
150.6205,105.1845
150.7875,105.3515
150.9786,105.4903
151.0780,105.5410
151.1890,105.5976
151.1890,105.5976
151.1890,105.5976
151.3094,105.6367
151.4136,105.6706
151.6469,105.7075
151.6469,105.7075
151.8831,105.7075
152.1164,105.6706
152.3410,105.5976
152.5514,105.4903
152.7425,105.3515
152.9095,105.1845
153.0483,104.9934
153.1556,104.7830
153.2010,104.6432
153.2404,104.5855
153.3048,104.5583
153.3189,104.5575
156.3071,104.5575
156.3741,104.5772
156.4199,104.6300
156.4250,104.6432
156.4704,104.7830
156.5777,104.9934
156.7165,105.1845
156.8835,105.3515
157.0746,105.4903
157.1740,105.5410
157.2850,105.5976
157.2850,105.5976
157.2850,105.5976
157.4054,105.6367
157.5096,105.6706
157.7429,105.7075
157.7429,105.7075
157.9791,105.7075
158.2124,105.6706
158.4370,105.5976
158.6474,105.4903
158.8385,105.3515
159.0055,105.1845
159.1443,104.9934
159.2516,104.7830
159.2970,104.6432
159.3364,104.5855
159.4008,104.5583
159.4149,104.5575
162.4031,104.5575
162.4701,104.5772
162.5159,104.6300
162.5210,104.6432
162.5664,104.7830
162.6737,104.9934
162.8125,105.1845
162.9795,105.3515
163.1706,105.4903
163.2700,105.5410
163.3810,105.5976
163.3810,105.5976
163.3810,105.5976
163.5014,105.6367
163.6056,105.6706
163.8389,105.7075
163.8389,105.7075
164.0751,105.7075
164.3084,105.6706
164.5330,105.5976
164.7434,105.4903
164.9345,105.3515
165.1015,105.1845
165.2403,104.9934
165.3476,104.7830
165.3930,104.6432
165.4324,104.5855
165.4968,104.5583
165.5109,104.5575
168.4991,104.5575
168.5661,104.5772
168.6119,104.6300
168.6170,104.6432
168.6624,104.7830
168.7697,104.9934
168.9085,105.1845
169.0755,105.3515
169.2666,105.4903
169.3660,105.5410
169.4770,105.5976
169.4770,105.5976
169.4770,105.5976
169.5974,105.6367
169.7016,105.6706
169.9349,105.7075
169.9349,105.7075
170.1711,105.7075
170.4044,105.6706
170.6290,105.5976
170.8394,105.4903
171.0305,105.3515
171.1975,105.1845
171.3363,104.9934
171.4436,104.7830
171.5166,104.5584
171.5253,104.5028
171.5535,104.3251
171.5535,103.0889
171.5166,102.8556
171.4436,102.6310
171.3870,102.5200
171.3363,102.4206
171.1975,102.2295
171.0305,102.0625
170.8394,101.9237
170.8385,101.9232
170.6290,101.8164
170.4044,101.7434
170.1711,101.7065
170.1711,101.7065
169.9349,101.7065
169.9349,101.7065
169.7016,101.7434
169.4770,101.8164
169.2666,101.9237
169.1694,101.9942
169.0755,102.0625
169.0755,102.0625
169.0755,102.0625
168.9085,102.2295
168.9085,102.2295
168.9085,102.2295
168.8866,102.2596
168.7697,102.4206
168.6624,102.6310
168.6170,102.7708
168.5776,102.8285
168.5132,102.8557
168.4991,102.8565
165.5109,102.8565
165.4439,102.8368
165.3981,102.7840
165.3930,102.7708
165.3476,102.6310
165.2403,102.4206
165.1015,102.2295
164.9345,102.0625
164.7434,101.9237
164.7425,101.9232
164.5330,101.8164
164.3084,101.7434
164.0751,101.7065
164.0751,101.7065
163.8389,101.7065
163.8389,101.7065
163.6056,101.7434
163.3810,101.8164
163.1706,101.9237
163.0734,101.9942
162.9795,102.0625
162.9795,102.0625
162.9795,102.0625
162.8125,102.2295
162.8125,102.2295
162.8125,102.2295
162.7906,102.2596
162.6737,102.4206
162.5664,102.6310
162.5210,102.7708
162.4816,102.8285
162.4172,102.8557
162.4031,102.8565
159.4149,102.8565
159.3479,102.8368
159.3021,102.7840
159.2970,102.7708
159.2516,102.6310
159.1443,102.4206
159.0055,102.2295
158.8385,102.0625
158.6474,101.9237
158.6465,101.9232
158.4370,101.8164
158.2124,101.7434
157.9791,101.7065
157.9791,101.7065
157.7429,101.7065
157.7429,101.7065
157.5096,101.7434
157.2850,101.8164
157.0746,101.9237
156.9774,101.9942
156.8835,102.0625
156.8835,102.0625
156.8835,102.0625
156.7165,102.2295
156.7165,102.2295
156.7165,102.2295
156.6946,102.2596
156.5777,102.4206
156.4704,102.6310
156.4250,102.7708
156.3856,102.8285
156.3212,102.8557
156.3071,102.8565
153.3189,102.8565
153.2519,102.8368
153.2061,102.7840
153.2010,102.7708
153.1556,102.6310
153.0483,102.4206
152.9095,102.2295
152.7425,102.0625
152.5514,101.9237
152.5505,101.9232
152.3410,101.8164
152.1164,101.7434
151.8831,101.7065
151.8831,101.7065
151.6469,101.7065
151.6469,101.7065
151.4136,101.7434
151.1890,101.8164
150.9786,101.9237
150.8814,101.9942
150.7875,102.0625
150.7875,102.0625
150.7875,102.0625
150.6205,102.2295
150.6205,102.2295
150.6205,102.2295
150.5986,102.2596
150.4817,102.4206
150.3744,102.6310
150.3290,102.7708
150.2896,102.8285
150.2252,102.8557
150.2111,102.8565
147.2229,102.8565
147.1559,102.8368
147.1101,102.7840
147.1050,102.7708
147.0596,102.6310
146.9523,102.4206
146.8135,102.2295
146.6465,102.0625
146.4554,101.9237
146.4545,101.9232
146.2450,101.8164
146.0204,101.7434
145.7871,101.7065
145.7871,101.7065
145.5509,101.7065
145.5509,101.7065
145.3176,101.7434
145.0930,101.8164
144.8826,101.9237
144.7854,101.9942
144.6915,102.0625
144.6915,102.0625
144.6915,102.0625
144.5245,102.2295
144.5245,102.2295
144.5245,102.2295
144.5026,102.2596
144.3857,102.4206
144.2784,102.6310
144.2330,102.7708
144.1936,102.8285
144.1292,102.8557
144.1151,102.8565
141.1269,102.8565
141.0599,102.8368
141.0141,102.7840
141.0090,102.7708
140.9636,102.6310
140.8563,102.4206
140.7175,102.2295
140.5505,102.0625
140.3594,101.9237
140.3585,101.9232
140.1490,101.8164
139.9244,101.7434
139.6911,101.7065
139.6911,101.7065
139.4549,101.7065
139.4549,101.7065
139.2216,101.7434
138.9970,101.8164
138.7866,101.9237
138.6894,101.9942
138.5955,102.0625
138.5955,102.0625
138.5955,102.0625
138.4285,102.2295
138.4285,102.2295
138.4285,102.2295
138.4066,102.2596
138.2897,102.4206
138.1824,102.6310
138.1370,102.7708
138.0976,102.8285
138.0332,102.8557
138.0191,102.8565
135.0309,102.8565
134.9639,102.8368
134.9181,102.7840
134.9130,102.7708
134.8676,102.6310
134.7603,102.4206
134.6215,102.2295
134.4545,102.0625
134.2634,101.9237
134.2625,101.9232
134.0530,101.8164
133.8284,101.7434
133.5951,101.7065
133.5951,101.7065
133.3589,101.7065
133.3589,101.7065
133.1256,101.7434
132.9010,101.8164
132.6906,101.9237
132.5934,101.9942
132.4995,102.0625
132.4995,102.0625
132.4995,102.0625
132.3325,102.2295
132.3325,102.2295
132.3325,102.2295
132.3106,102.2596
132.1937,102.4206
132.0864,102.6310
132.0410,102.7708
132.0016,102.8285
131.9372,102.8557
131.9231,102.8565
128.9349,102.8565
128.8679,102.8368
128.8221,102.7840
128.8170,102.7708
128.7716,102.6310
128.6643,102.4206
128.5255,102.2295
128.3585,102.0625
128.1674,101.9237
128.1665,101.9232
127.9570,101.8164
127.7324,101.7434
127.4991,101.7065
127.4991,101.7065
127.2629,101.7065
127.2629,101.7065
127.0296,101.7434
126.8050,101.8164
126.5946,101.9237
126.4974,101.9942
126.4035,102.0625
126.4035,102.0625
126.4035,102.0625
126.2365,102.2295
126.1467,102.3531
126.0913,102.3958
126.0217,102.4017
125.9599,102.3691
125.9587,102.3679
124.6558,101.0650
124.6223,101.0037
124.6195,100.9773
124.6195,99.6372
126.2800,99.6372
126.3132,99.8471
126.3132,99.8471
126.3789,100.0492
126.4754,100.2386
126.6003,100.4105
126.6003,100.4105
126.7505,100.5607
126.7505,100.5607
126.9224,100.6856
127.1118,100.7821
127.3139,100.8478
127.3800,100.8582
127.3800,99.1310
126.2800,99.1310
126.2800,99.6372
124.6195,99.6372
124.6195,98.1248
126.2800,98.1248
126.2800,98.6310
127.3800,98.6310
127.3800,96.9038
127.3800,96.9038
127.3139,96.9142
127.1118,96.9799
126.9224,97.0764
126.7505,97.2013
126.7505,97.2013
126.6003,97.3515
126.6003,97.3515
126.4754,97.5234
126.3789,97.7128
126.3132,97.9149
126.3132,97.9149
126.2800,98.1248
124.6195,98.1248
124.6195,89.6886
124.6392,89.6216
124.6558,89.6010
128.4468,85.8100
128.5081,85.7765
128.5778,85.7815
128.6338,85.8233
128.6582,85.8888
128.6585,85.8976
128.6585,86.8724
128.6896,87.0686
128.7510,87.2576
128.7510,87.2576
128.7994,87.3527
128.8412,87.4347
128.9580,87.5955
129.0985,87.7360
129.2593,87.8528
129.3461,87.8970
129.4364,87.9430
129.4364,87.9430
129.5309,87.9737
129.6254,88.0044
129.8216,88.0355
129.8216,88.0355
130.0204,88.0355
130.0204,88.0355
130.2166,88.0044
130.4056,87.9430
130.5827,87.8528
130.7435,87.7360
130.8840,87.5955
131.0008,87.4347
131.0623,87.3139
131.1103,87.2631
131.1781,87.2463
131.2443,87.2688
131.2877,87.3236
131.2907,87.3319
131.2910,87.3326
131.2910,87.3326
131.3238,87.3970
131.3812,87.5097
131.4980,87.6705
131.6385,87.8110
131.7993,87.9278
131.8292,87.9430
131.9764,88.0180
131.9764,88.0180
132.0709,88.0487
132.1654,88.0794
132.3616,88.1105
132.3616,88.1105
132.5604,88.1105
132.5604,88.1105
132.7566,88.0794
132.9456,88.0180
133.1227,87.9278
133.2835,87.8110
133.4240,87.6705
133.5408,87.5097
133.6205,87.3532
133.6685,87.3024
133.7363,87.2856
133.8024,87.3082
133.8415,87.3532
133.9212,87.5097
134.0380,87.6705
134.1785,87.8110
134.3393,87.9278
134.3692,87.9430
134.5164,88.0180
134.5164,88.0180
134.6109,88.0487
134.7054,88.0794
134.9016,88.1105
134.9016,88.1105
135.1004,88.1105
135.1004,88.1105
135.2966,88.0794
135.4856,88.0180
135.6627,87.9278
135.8235,87.8110
135.9640,87.6705
136.0808,87.5097
136.1605,87.3532
136.2085,87.3024
136.2763,87.2856
136.3424,87.3082
136.3815,87.3532
136.4612,87.5097
136.5780,87.6705
136.7185,87.8110
136.8793,87.9278
136.9092,87.9430
137.0564,88.0180
137.0564,88.0180
137.1509,88.0487
137.2454,88.0794
137.4416,88.1105
137.4416,88.1105
137.6404,88.1105
137.6404,88.1105
137.6488,88.1092
137.7181,88.1181
137.7716,88.1631
137.7922,88.2299
137.7735,88.2972
137.7559,88.3193
137.0810,88.9942
137.0197,89.0277
136.9933,89.0305
129.0582,89.0305
128.8939,89.0632
128.8939,89.0632
128.8486,89.0820
128.7391,89.1273
128.7391,89.1273
128.7391,89.1273
128.5998,89.2204
128.5998,89.2204
128.5998,89.2204
126.7204,91.0998
126.7204,91.0998
126.6273,91.2391
126.6273,91.2391
126.5936,91.3204
126.5936,91.3204
126.5632,91.3939
126.5632,91.3939
126.5305,91.5582
126.5305,91.7470
126.5108,91.8141
126.4794,91.8473
126.4035,91.9025
126.4035,91.9025
126.2365,92.0695
126.2365,92.0695
126.2365,92.0695
126.2365,92.0695
126.0977,92.2606
125.9904,92.4710
125.9174,92.6956
125.8805,92.9289
125.8805,94.1651
125.9174,94.3984
125.9904,94.6230
126.0835,94.8056
126.0977,94.8334
126.2365,95.0245
126.4035,95.1915
126.5946,95.3303
126.6940,95.3810
126.8050,95.4376
126.8050,95.4376
126.8050,95.4376
126.8826,95.4628
127.0296,95.5106
127.0689,95.5168
127.1041,95.5223
127.1672,95.5523
127.1723,95.5571
128.5181,96.9029
128.5516,96.9642
128.5466,97.0339
128.5047,97.0899
128.4393,97.1143
128.3710,97.0994
128.3576,97.0909
128.3376,97.0764
128.1482,96.9799
127.9461,96.9142
127.8800,96.9038
127.8800,100.8582
127.9461,100.8478
127.9461,100.8478
128.1482,100.7821
128.3376,100.6856
128.5095,100.5607
128.5095,100.5607
128.6597,100.4105
128.6597,100.4105
128.7846,100.2386
128.7892,100.2295
128.8372,100.1787
128.9050,100.1619
128.9712,100.1844
129.0102,100.2295
129.0149,100.2388
129.1399,100.4108
129.2902,100.5611
129.4622,100.6860
129.4622,100.6860
129.4622,100.6861
129.6516,100.7826
129.8538,100.8482
130.0637,100.8815
130.0637,100.8815
130.2763,100.8815
130.2763,100.8815
130.4862,100.8482
130.6884,100.7826
130.8778,100.6861
130.9584,100.6275
131.0498,100.5611
131.0498,100.5611
131.0498,100.5611
131.2001,100.4108
131.2001,100.4108
131.2001,100.4108
131.3250,100.2388
131.3251,100.2388
131.3251,100.2388
131.4216,100.0494
131.4872,99.8472
131.5205,99.6373
131.5205,99.6372
132.8840,99.6372
132.9172,99.8471
132.9172,99.8471
132.9829,100.0492
133.0794,100.2386
133.2043,100.4105
133.2043,100.4105
133.3545,100.5607
133.3545,100.5607
133.5264,100.6856
133.7158,100.7821
133.9179,100.8478
133.9840,100.8582
133.9840,99.1310
132.8840,99.1310
132.8840,99.6372
131.5205,99.6372
131.5205,98.1247
131.5021,98.0084
131.5110,97.9391
131.5560,97.8857
131.6228,97.8650
131.6245,97.8650
131.8260,97.8650
131.8260,94.6044
131.8457,94.5373
131.8985,94.4916
131.9676,94.4816
132.0312,94.5107
132.0679,94.5660
132.0864,94.6230
132.1937,94.8334
132.3325,95.0245
132.4995,95.1915
132.6906,95.3303
132.8708,95.4222
132.9022,95.4450
134.1374,96.6801
134.1708,96.7415
134.1659,96.8112
134.1240,96.8671
134.0691,96.8903
133.9179,96.9142
133.9179,96.9142
133.7158,96.9799
133.5264,97.0764
133.3545,97.2013
133.3545,97.2013
133.2043,97.3515
133.2043,97.3515
133.0794,97.5234
132.9829,97.7128
132.9172,97.9149
132.9172,97.9149
132.8840,98.1248
132.8840,98.6310
134.1100,98.6310
134.1770,98.6507
134.2228,98.7035
134.2340,98.7550
134.2340,98.8810
134.3600,98.8810
134.4270,98.9007
134.4728,98.9535
134.4840,99.0050
134.4840,100.8582
134.5501,100.8478
134.5501,100.8478
134.7522,100.7821
134.9416,100.6856
135.1135,100.5607
135.1135,100.5607
135.2637,100.4105
135.2637,100.4105
135.3886,100.2386
135.3932,100.2295
135.4412,100.1787
135.5090,100.1619
135.5752,100.1844
135.6142,100.2295
135.6189,100.2388
135.7439,100.4108
135.8942,100.5611
136.0662,100.6860
136.0662,100.6860
136.0662,100.6861
136.2556,100.7826
136.4578,100.8482
136.6677,100.8815
136.6677,100.8815
136.8803,100.8815
136.8803,100.8815
137.0902,100.8482
137.2924,100.7826
137.4818,100.6861
137.5624,100.6275
137.6538,100.5611
137.6538,100.5611
137.6538,100.5611
137.8041,100.4108
137.8041,100.4108
137.8041,100.4108
137.9290,100.2388
137.9290,100.2388
137.9291,100.2388
138.0256,100.0494
138.0912,99.8472
138.1245,99.6373
138.1245,99.6372
138.7260,99.6372
138.7592,99.8471
138.7592,99.8471
138.8249,100.0492
138.9214,100.2386
139.0463,100.4105
139.0463,100.4105
139.1965,100.5607
139.1965,100.5607
139.3684,100.6856
139.5578,100.7821
139.7599,100.8478
139.8260,100.8582
139.8260,99.1310
138.7260,99.1310
138.7260,99.6372
138.1245,99.6372
138.1245,98.1248
138.7260,98.1248
138.7260,98.6310
139.8260,98.6310
139.8260,96.9038
139.8260,96.9038
139.7599,96.9142
139.5578,96.9799
139.3684,97.0764
139.1965,97.2013
139.1965,97.2013
139.0463,97.3515
139.0463,97.3515
138.9214,97.5234
138.8249,97.7128
138.7592,97.9149
138.7592,97.9149
138.7260,98.1248
138.1245,98.1248
138.1245,98.1247
138.0912,97.9148
138.0551,97.8034
138.0490,97.7651
138.0490,94.8776
138.0687,94.8106
138.1215,94.7648
138.1906,94.7549
138.2542,94.7839
138.2835,94.8213
138.2897,94.8334
138.3166,94.8706
138.4285,95.0245
138.5955,95.1915
138.7866,95.3303
138.8860,95.3810
138.9970,95.4376
138.9970,95.4376
138.9970,95.4376
139.0746,95.4628
139.2216,95.5106
139.4549,95.5475
139.4549,95.5475
139.5573,95.5475
139.6244,95.5672
139.6450,95.5838
140.9641,96.9029
140.9976,96.9642
140.9926,97.0339
140.9507,97.0899
140.8853,97.1143
140.8170,97.0994
140.8036,97.0909
140.7836,97.0764
140.5942,96.9799
140.3921,96.9142
140.3260,96.9038
140.3260,100.8582
140.3921,100.8478
140.3921,100.8478
140.5942,100.7821
140.7836,100.6856
140.9555,100.5607
140.9555,100.5607
141.1057,100.4105
141.1057,100.4105
141.2306,100.2386
141.2352,100.2295
141.2832,100.1787
141.3510,100.1619
141.4172,100.1844
141.4562,100.2295
141.4609,100.2388
141.5859,100.4108
141.7362,100.5611
141.9082,100.6860
141.9082,100.6860
141.9082,100.6861
142.0976,100.7826
142.2998,100.8482
142.5097,100.8815
142.5097,100.8815
142.7223,100.8815
142.7223,100.8815
142.9322,100.8482
143.1344,100.7826
143.3238,100.6861
143.4044,100.6275
143.4958,100.5611
143.4958,100.5611
143.4958,100.5611
143.6461,100.4108
143.6461,100.4108
143.6461,100.4108
143.7710,100.2388
143.7711,100.2388
143.7711,100.2388
143.8676,100.0494
143.9332,99.8472
143.9665,99.6373
143.9665,99.6372
144.8220,99.6372
144.8552,99.8471
144.8552,99.8471
144.9209,100.0492
145.0174,100.2386
145.1423,100.4105
145.1423,100.4105
145.2925,100.5607
145.2925,100.5607
145.4644,100.6856
145.6538,100.7821
145.8559,100.8478
145.9220,100.8582
145.9220,99.1310
144.8220,99.1310
144.8220,99.6372
143.9665,99.6372
143.9665,98.1248
144.8220,98.1248
144.8220,98.6310
145.9220,98.6310
145.9220,96.9038
145.9220,96.9038
145.8559,96.9142
145.6538,96.9799
145.4644,97.0764
145.2925,97.2013
145.2925,97.2013
145.1423,97.3515
145.1423,97.3515
145.0174,97.5234
144.9209,97.7128
144.8552,97.9149
144.8552,97.9149
144.8220,98.1248
143.9665,98.1248
143.9665,98.1247
143.9332,97.9148
143.8873,97.7733
143.8853,97.7035
143.9214,97.6436
143.9841,97.6128
144.0052,97.6110
144.1450,97.6110
144.1450,94.8776
144.1647,94.8106
144.2175,94.7648
144.2866,94.7549
144.3502,94.7839
144.3795,94.8213
144.3857,94.8334
144.4126,94.8706
144.5245,95.0245
144.6915,95.1915
144.8826,95.3303
144.9820,95.3810
145.0930,95.4376
145.0930,95.4376
145.0930,95.4376
145.1706,95.4628
145.3176,95.5106
145.5509,95.5475
145.7803,95.5475
145.8474,95.5672
145.8680,95.5838
147.5875,97.3032
147.6209,97.3646
147.6160,97.4343
147.6001,97.4638
147.5569,97.5232
147.5569,97.5232
147.5522,97.5325
147.5042,97.5833
147.4364,97.6001
147.3703,97.5775
147.3312,97.5325
147.3266,97.5234
147.2017,97.3515
147.2017,97.3515
147.0515,97.2013
147.0515,97.2013
146.8796,97.0764
146.6902,96.9799
146.4881,96.9142
146.4220,96.9038
146.4220,100.8582
146.4881,100.8478
146.4881,100.8478
146.6902,100.7821
146.8796,100.6856
147.0515,100.5607
147.0515,100.5607
147.2017,100.4105
147.2017,100.4105
147.3266,100.2386
147.3312,100.2295
147.3792,100.1787
147.4470,100.1619
147.5132,100.1844
147.5522,100.2295
147.5569,100.2388
147.6819,100.4108
147.8322,100.5611
148.0042,100.6860
148.0042,100.6860
148.0042,100.6861
148.1936,100.7826
148.3958,100.8482
148.6057,100.8815
148.6057,100.8815
148.8183,100.8815
148.8183,100.8815
149.0282,100.8482
149.2304,100.7826
149.4198,100.6861
149.5004,100.6275
149.5918,100.5611
149.5918,100.5611
149.5918,100.5611
149.7421,100.4108
149.7421,100.4108
149.7421,100.4108
149.8670,100.2388
149.8671,100.2388
149.8671,100.2388
149.9636,100.0494
150.0292,99.8472
150.0625,99.6373
150.0625,99.3832
150.9230,99.3832
150.9562,99.5931
150.9562,99.5931
151.0219,99.7952
151.1184,99.9846
151.2433,100.1565
151.2433,100.1565
151.3935,100.3067
151.3935,100.3067
151.5654,100.4316
151.7548,100.5281
151.9569,100.5938
152.0230,100.6042
152.0230,98.8770
150.9230,98.8770
150.9230,99.3832
150.0625,99.3832
150.0625,98.1247
150.0292,97.9148
150.0149,97.8708
150.9230,97.8708
150.9230,98.3770
152.0230,98.3770
152.0230,96.6498
152.0230,96.6498
151.9569,96.6602
151.7548,96.7259
151.5654,96.8224
151.3935,96.9473
151.3935,96.9473
151.2433,97.0975
151.2433,97.0975
151.1184,97.2694
151.0219,97.4588
150.9562,97.6609
150.9562,97.6609
150.9230,97.8708
150.0149,97.8708
149.9833,97.7733
149.9813,97.7035
150.0174,97.6436
150.0801,97.6128
150.1012,97.6110
150.2410,97.6110
150.2410,94.8776
150.2607,94.8106
150.3135,94.7648
150.3826,94.7549
150.4462,94.7839
150.4755,94.8213
150.4817,94.8334
150.5086,94.8706
150.6205,95.0245
150.7875,95.1915
150.9786,95.3303
151.0780,95.3810
151.1890,95.4376
151.1890,95.4376
151.1890,95.4376
151.2666,95.4628
151.4136,95.5106
151.6469,95.5475
151.8763,95.5475
151.9434,95.5672
151.9640,95.5838
152.8925,96.5122
152.9259,96.5736
152.9210,96.6433
152.8791,96.6992
152.8136,96.7236
152.7665,96.7179
152.5891,96.6602
152.5230,96.6498
152.5230,100.6042
152.5891,100.5938
152.5891,100.5938
152.7912,100.5281
152.9806,100.4316
153.1525,100.3067
153.1525,100.3067
153.3027,100.1565
153.3027,100.1565
153.4276,99.9846
153.4322,99.9755
153.4802,99.9247
153.5480,99.9079
153.6142,99.9304
153.6532,99.9755
153.6579,99.9848
153.7829,100.1568
153.9332,100.3071
154.1052,100.4320
154.1052,100.4320
154.1052,100.4321
154.2946,100.5286
154.4968,100.5942
154.7067,100.6275
154.7067,100.6275
154.9193,100.6275
154.9193,100.6275
155.1292,100.5942
155.3314,100.5286
155.5208,100.4321
155.5505,100.4105
155.6928,100.3071
155.6928,100.3071
155.6928,100.3071
155.8431,100.1568
155.8431,100.1568
155.8431,100.1568
155.9680,99.9848
155.9681,99.9848
155.9681,99.9848
156.0646,99.7954
156.1159,99.6372
157.0190,99.6372
157.0522,99.8471
157.0522,99.8471
157.1179,100.0492
157.2144,100.2386
157.3393,100.4105
157.3393,100.4105
157.4895,100.5607
157.4895,100.5607
157.6614,100.6856
157.8508,100.7821
158.0529,100.8478
158.1190,100.8582
158.1190,99.1310
157.0190,99.1310
157.0190,99.6372
156.1159,99.6372
156.1302,99.5932
156.1635,99.3833
156.1635,98.1248
157.0190,98.1248
157.0190,98.6310
158.1190,98.6310
158.1190,96.9038
158.1190,96.9038
158.0529,96.9142
157.8508,96.9799
157.6614,97.0764
157.4895,97.2013
157.4895,97.2013
157.3393,97.3515
157.3393,97.3515
157.2144,97.5234
157.1179,97.7128
157.0522,97.9149
157.0522,97.9149
157.0190,98.1248
156.1635,98.1248
156.1635,97.9890
156.1832,97.9220
156.2360,97.8762
156.2875,97.8650
156.3370,97.8650
156.3370,94.8776
156.3567,94.8106
156.4095,94.7648
156.4786,94.7549
156.5422,94.7839
156.5715,94.8213
156.5777,94.8334
156.6046,94.8706
156.7165,95.0245
156.8835,95.1915
157.0746,95.3303
157.1740,95.3810
157.2850,95.4376
157.2850,95.4376
157.2850,95.4376
157.3626,95.4628
157.5096,95.5106
157.7429,95.5475
157.9723,95.5475
158.0394,95.5672
158.0600,95.5838
159.7823,97.3061
159.8158,97.3675
159.8108,97.4372
159.7950,97.4667
159.7539,97.5232
159.7539,97.5232
159.7492,97.5325
159.7012,97.5833
159.6334,97.6001
159.5673,97.5775
159.5282,97.5325
159.5236,97.5234
159.3987,97.3515
159.3987,97.3515
159.2485,97.2013
159.2485,97.2013
159.0766,97.0764
158.8872,96.9799
158.6851,96.9142
158.6190,96.9038
158.6190,100.8582
158.6851,100.8478
158.6851,100.8478
158.8872,100.7821
159.0766,100.6856
159.2485,100.5607
159.2485,100.5607
159.3987,100.4105
159.3987,100.4105
159.5236,100.2386
159.5282,100.2295
159.5762,100.1787
159.6440,100.1619
159.7102,100.1844
159.7492,100.2295
159.7539,100.2388
159.8789,100.4108
160.0292,100.5611
160.2012,100.6860
160.2012,100.6860
160.2012,100.6861
160.3906,100.7826
160.5928,100.8482
160.8027,100.8815
160.8027,100.8815
161.0153,100.8815
161.0153,100.8815
161.2252,100.8482
161.4274,100.7826
161.6168,100.6861
161.6974,100.6275
161.7888,100.5611
161.7888,100.5611
161.7888,100.5611
161.9391,100.4108
161.9391,100.4108
161.9391,100.4108
162.0640,100.2388
162.0640,100.2388
162.0641,100.2388
162.1606,100.0494
162.2262,99.8472
162.2595,99.6373
162.2595,99.6372
163.1100,99.6372
163.1432,99.8471
163.1432,99.8471
163.2089,100.0492
163.3054,100.2386
163.4303,100.4105
163.4303,100.4105
163.5805,100.5607
163.5805,100.5607
163.7524,100.6856
163.9418,100.7821
164.1439,100.8478
164.2100,100.8582
164.2100,99.1310
163.1100,99.1310
163.1100,99.6372
162.2595,99.6372
162.2595,98.1248
163.1100,98.1248
163.1100,98.6310
164.2100,98.6310
164.2100,96.9038
164.2100,96.9038
164.1439,96.9142
163.9418,96.9799
163.7524,97.0764
163.5805,97.2013
163.5805,97.2013
163.4303,97.3515
163.4303,97.3515
163.3054,97.5234
163.2089,97.7128
163.1432,97.9149
163.1432,97.9149
163.1100,98.1248
162.2595,98.1248
162.2595,98.1247
162.2262,97.9148
162.1803,97.7733
162.1783,97.7035
162.2144,97.6436
162.2771,97.6128
162.2982,97.6110
162.4330,97.6110
162.4330,94.8776
162.4527,94.8106
162.5055,94.7648
162.5746,94.7549
162.6382,94.7839
162.6675,94.8213
162.6737,94.8334
162.7006,94.8706
162.8125,95.0245
162.9795,95.1915
163.1706,95.3303
163.2700,95.3810
163.3810,95.4376
163.3810,95.4376
163.3810,95.4376
163.4586,95.4628
163.6056,95.5106
163.8389,95.5475
163.8389,95.5475
164.0751,95.5475
164.1811,95.5307
164.3084,95.5106
164.4492,95.4648
164.5191,95.4628
164.5752,95.4950
165.9527,96.8725
165.9862,96.9338
165.9890,96.9602
165.9890,97.2846
165.9832,97.3043
165.9823,97.3247
165.9706,97.3474
165.9693,97.3517
165.9663,97.3561
165.9658,97.3569
165.8449,97.5232
165.8362,97.5404
165.8310,97.5477
165.8103,97.5641
165.7922,97.5833
165.7834,97.5855
165.7763,97.5911
165.7500,97.5937
165.7244,97.6001
165.7158,97.5972
165.7067,97.5981
165.6832,97.5861
165.6583,97.5775
165.6517,97.5699
165.6445,97.5663
165.6363,97.5522
165.6192,97.5325
165.6146,97.5234
165.4897,97.3515
165.4897,97.3515
165.3395,97.2013
165.3395,97.2013
165.1676,97.0764
164.9782,96.9799
164.7761,96.9142
164.7100,96.9038
164.7100,100.8582
164.7761,100.8478
164.7761,100.8478
164.9782,100.7821
165.1676,100.6856
165.3395,100.5607
165.3395,100.5607
165.4897,100.4105
165.4897,100.4105
165.6146,100.2386
165.6192,100.2295
165.6672,100.1787
165.7350,100.1619
165.8012,100.1844
165.8402,100.2295
165.8449,100.2388
165.9699,100.4108
166.1202,100.5611
166.2922,100.6860
166.2922,100.6860
166.2922,100.6861
166.4816,100.7826
166.6838,100.8482
166.8937,100.8815
166.8937,100.8815
167.1063,100.8815
167.1063,100.8815
167.3162,100.8482
167.5184,100.7826
167.7078,100.6861
167.7884,100.6275
167.8798,100.5611
167.8798,100.5611
167.8798,100.5611
168.0301,100.4108
168.0301,100.4108
168.0301,100.4108
168.1550,100.2388
168.1550,100.2388
168.1551,100.2388
168.2516,100.0494
168.3172,99.8472
168.3505,99.6373
168.3505,99.6372
169.2060,99.6372
169.2392,99.8471
169.2392,99.8471
169.3049,100.0492
169.4014,100.2386
169.5263,100.4105
169.5263,100.4105
169.6765,100.5607
169.6765,100.5607
169.8484,100.6856
170.0378,100.7821
170.2399,100.8478
170.3060,100.8582
170.3060,99.1310
169.2060,99.1310
169.2060,99.6372
168.3505,99.6372
168.3505,98.1248
169.2060,98.1248
169.2060,98.6310
170.3060,98.6310
170.3060,96.9038
170.3060,96.9038
170.2399,96.9142
170.0378,96.9799
169.8484,97.0764
169.6765,97.2013
169.6765,97.2013
169.5263,97.3515
169.5263,97.3515
169.4014,97.5234
169.3049,97.7128
169.2392,97.9149
169.2392,97.9149
169.2060,98.1248
168.3505,98.1248
168.3505,98.1247
168.3172,97.9148
168.2713,97.7733
168.2693,97.7035
168.3054,97.6436
168.3681,97.6128
168.3892,97.6110
168.5290,97.6110
168.5290,94.8776
168.5487,94.8106
168.6015,94.7648
168.6706,94.7549
168.7342,94.7839
168.7635,94.8213
168.7697,94.8334
168.7966,94.8706
168.9085,95.0245
169.0755,95.1915
169.2666,95.3303
169.3660,95.3810
169.4770,95.4376
169.4770,95.4376
169.4770,95.4376
169.5546,95.4628
169.7016,95.5106
169.7409,95.5168
169.7761,95.5223
169.8392,95.5523
169.8443,95.5571
170.9947,96.7075
171.0282,96.7689
171.0232,96.8385
170.9814,96.8945
170.9159,96.9189
170.8771,96.9142
170.8769,96.9154
170.8721,96.9142
170.8060,96.9038
170.8060,100.8582
170.8721,100.8478
170.8721,100.8478
171.0742,100.7821
171.2636,100.6856
171.4355,100.5607
171.4355,100.5607
171.5857,100.4105
171.5857,100.4105
171.7106,100.2386
171.7152,100.2295
171.7632,100.1787
171.8310,100.1619
171.8972,100.1844
171.9362,100.2295
171.9409,100.2388
172.0659,100.4108
172.2162,100.5611
172.3882,100.6860
172.3882,100.6860
172.3882,100.6861
172.5776,100.7826
172.7798,100.8482
172.9897,100.8815
172.9897,100.8815
173.2023,100.8815
173.2023,100.8815
173.4122,100.8482
173.6144,100.7826
173.8038,100.6861
173.8844,100.6275
173.9758,100.5611
173.9758,100.5611
173.9758,100.5611
174.1261,100.4108
174.1261,100.4108
174.1261,100.4108
174.2510,100.2388
174.2510,100.2388
174.2511,100.2388
174.3476,100.0494
174.4132,99.8472
174.4465,99.6373
174.4465,98.1247
174.4132,97.9148
174.3476,97.7126
174.2511,97.5232
174.2491,97.5205
174.2486,97.5193
174.2485,97.5190
174.2486,97.5190
174.2256,97.4547
174.2254,97.4512
174.1103,93.4200
171.6775,93.4200
171.6105,93.4003
171.5647,93.3475
171.5535,93.2960
171.5535,92.9289
171.5166,92.6956
171.4771,92.5742
171.4436,92.4710
171.4436,92.4710
171.4436,92.4710
171.3684,92.3235
171.3363,92.2606
171.1975,92.0695
171.0305,91.9025
170.9737,91.8612
170.9546,91.8473
170.9119,91.7920
170.9035,91.7470
170.9035,91.5812
170.9035,91.5812
170.8914,91.5204
170.8708,91.4169
170.8308,91.3204
170.8067,91.2621
170.8067,91.2621
170.8067,91.2621
170.7136,91.1228
170.7136,91.1228
168.8112,89.2204
168.8112,89.2204
168.6719,89.1273
168.6719,89.1273
168.5624,89.0820
168.5624,89.0820
168.5171,89.0632
168.5171,89.0632
168.3528,89.0305
168.3528,89.0305
162.8537,89.0305
162.7866,89.0108
162.7660,88.9942
161.4718,87.7000
161.4591,87.6767
161.4432,87.6553
161.4426,87.6465
161.4383,87.6387
161.4402,87.6122
161.4384,87.5856
161.4428,87.5758
161.4433,87.5690
161.4508,87.5526
161.4546,87.5458
161.4808,87.5097
161.5617,87.3509
161.5626,87.3492
161.5861,87.3259
161.6088,87.3019
161.6107,87.3014
161.6122,87.3000
161.6445,87.2930
161.6766,87.2851
161.6785,87.2857
161.6805,87.2853
161.7114,87.2969
161.7427,87.3076
161.7441,87.3093
161.7459,87.3099
161.7529,87.3194
161.7818,87.3527
161.8616,87.5094
161.9784,87.6701
161.9784,87.6701
162.1189,87.8106
162.2796,87.9274
162.4566,88.0175
162.6455,88.0789
162.6910,88.0861
162.6910,86.7930
162.7480,86.8259
162.8752,86.8600
163.0068,86.8600
163.1340,86.8259
163.1910,86.7930
163.1910,88.0861
163.2365,88.0789
163.4254,88.0175
163.6024,87.9274
163.7631,87.8106
163.7631,87.8106
163.9036,87.6701
163.9036,87.6701
164.0204,87.5094
164.1002,87.3527
164.1482,87.3019
164.2160,87.2851
164.2822,87.3076
164.3212,87.3527
164.4012,87.5097
164.5180,87.6705
164.6585,87.8110
164.8193,87.9278
164.8492,87.9430
164.9964,88.0180
164.9964,88.0180
165.0909,88.0487
165.1854,88.0794
165.3816,88.1105
165.3816,88.1105
165.5804,88.1105
165.5804,88.1105
165.7766,88.0794
165.9656,88.0180
166.1427,87.9278
166.3035,87.8110
166.4440,87.6705
166.5608,87.5097
166.6510,87.3326
166.6628,87.2962
166.7023,87.2385
166.7666,87.2113
166.7808,87.2105
169.0663,87.2105
169.1334,87.2302
169.1540,87.2468
174.8812,92.9740
174.9147,93.0353
174.9175,93.0617
174.9175,102.2002
174.8978,102.2673
174.8812,102.2879
174.7379,102.4312
174.7379,102.4312
174.6129,102.6032
174.6082,102.6125
174.5602,102.6633
174.4924,102.6801
174.4263,102.6575
174.3872,102.6125
174.3826,102.6034
174.2577,102.4315
174.2577,102.4315
174.1075,102.2813
174.1075,102.2813
173.9356,102.1564
173.7462,102.0599
173.5441,101.9942
173.4780,101.9838
173.4780,103.5280
173.4210,103.4951
173.2938,103.4610
173.1622,103.4610
173.0350,103.4951
172.9780,103.5280
172.9780,101.9838
172.9780,101.9838
172.9119,101.9942
172.7098,102.0599
172.5204,102.1564
172.3485,102.2813
172.3485,102.2813
172.1983,102.4315
172.1983,102.4315
172.0734,102.6034
171.9769,102.7928
171.9112,102.9949
171.9112,102.9949
171.8780,103.2048
171.8780,103.7110
172.7950,103.7110
172.7621,103.7680
172.7280,103.8952
172.7280,104.0268
172.7621,104.1540
172.7950,104.2110
171.8780,104.2110
171.8780,104.7172
171.9112,104.9271
171.9112,104.9271
171.9769,105.1292
172.0734,105.3186
172.1983,105.4905
172.1983,105.4905
172.3485,105.6407
172.3485,105.6407
172.5204,105.7656
172.7098,105.8621
172.9119,105.9278
172.9780,105.9382
172.9780,104.3940
173.0350,104.4269
173.1622,104.4610
173.2938,104.4610
173.4210,104.4269
173.4780,104.3940
173.4780,105.9382
173.5441,105.9278
173.5441,105.9278
173.7462,105.8621
173.9356,105.7656
174.1075,105.6407
174.1075,105.6407
174.2577,105.4905
174.2577,105.4905
174.3826,105.3186
174.3872,105.3095
174.4352,105.2587
174.5030,105.2419
174.5692,105.2644
174.6082,105.3095
174.6129,105.3188
174.7379,105.4908
174.8882,105.6411
175.0602,105.7660
175.0602,105.7660
175.0602,105.7661
175.2496,105.8626
175.4518,105.9282
175.6617,105.9615
175.6617,105.9615
175.8743,105.9615
175.8743,105.9615
176.0842,105.9282
176.2864,105.8626
176.4758,105.7661
176.6073,105.6706
176.6478,105.6411
176.6478,105.6411
176.6478,105.6411
176.7981,105.4908
176.7981,105.4908
176.7981,105.4908
176.9230,105.3188
176.9230,105.3188
176.9231,105.3188
177.0196,105.1294
177.0852,104.9272
177.1185,104.7173
177.1185,103.2047
177.0852,102.9948
177.0196,102.7926
176.9231,102.6032
176.9230,102.6032
176.9230,102.6032
176.7981,102.4312
176.6548,102.2879
176.6213,102.2266
176.6185,102.2002
176.6185,92.5742
176.6185,92.5742
176.6093,92.5279
176.5858,92.4099
176.5625,92.3536
176.5610,92.3501
176.5374,92.2931
176.5217,92.2551
176.5217,92.2551
176.5217,92.2551
176.4286,92.1158
176.4286,92.1158
171.5101,87.1973
173.5386,87.1973
176.3542,87.1973
176.3542,60.0979
173.5386,60.0979
173.5386,87.1973
171.5101,87.1973
170.0122,85.6994
170.0122,85.6994
169.8729,85.6063
169.8729,85.6063
169.7471,85.5542
169.7471,85.5542
169.7471,85.5542
169.7181,85.5422
169.7181,85.5422
169.7181,85.5422
169.5538,85.5095
169.5538,85.5095
166.7808,85.5095
166.7137,85.4898
166.6680,85.4370
166.6628,85.4238
166.6547,85.3987
166.6510,85.3874
166.5608,85.2103
166.4440,85.0495
166.3035,84.9090
166.1427,84.7922
165.9656,84.7020
165.9656,84.7020
165.7766,84.6406
165.6785,84.6250
165.5804,84.6095
165.3816,84.6095
165.3162,84.6199
165.1854,84.6406
164.9964,84.7020
164.9964,84.7020
164.8193,84.7922
164.6585,84.9090
164.5180,85.0495
164.4012,85.2103
164.3212,85.3673
164.2732,85.4181
164.2054,85.4349
164.1393,85.4124
164.1002,85.3673
164.0204,85.2106
163.9036,85.0499
163.9036,85.0499
163.7631,84.9094
163.6024,84.7926
163.4254,84.7025
163.4254,84.7025
163.2365,84.6411
163.1910,84.6339
163.1910,85.9270
163.1340,85.8941
163.0068,85.8600
162.8752,85.8600
162.7480,85.8941
162.6910,85.9270
162.6910,84.6339
162.6910,84.6339
162.6455,84.6411
162.4566,84.7025
162.2796,84.7926
162.1189,84.9094
162.1189,84.9094
161.9784,85.0499
161.9784,85.0499
161.8616,85.2106
161.7818,85.3673
161.7338,85.4181
161.6660,85.4349
161.5998,85.4124
161.5608,85.3673
161.4808,85.2103
161.3640,85.0495
161.2235,84.9090
161.0627,84.7922
160.8856,84.7020
160.8856,84.7020
160.6966,84.6406
160.5985,84.6250
160.5004,84.6095
160.3016,84.6095
160.2362,84.6199
160.1054,84.6406
159.9164,84.7020
159.9164,84.7020
159.7393,84.7922
159.5785,84.9090
159.4380,85.0495
159.3212,85.2103
159.2415,85.3668
159.1935,85.4176
159.1257,85.4344
159.0596,85.4118
159.0205,85.3668
158.9409,85.2106
158.9408,85.2103
158.8240,85.0495
158.6835,84.9090
158.5227,84.7922
158.3456,84.7020
158.3456,84.7020
158.1566,84.6406
158.0585,84.6250
157.9604,84.6095
157.7616,84.6095
157.6962,84.6199
157.5654,84.6406
157.3764,84.7020
157.3764,84.7020
157.1993,84.7922
157.0385,84.9090
156.8980,85.0495
156.7812,85.2103
156.7015,85.3668
156.6535,85.4176
156.5857,85.4344
156.5196,85.4118
156.4805,85.3668
156.4009,85.2106
156.4008,85.2103
156.2840,85.0495
156.1435,84.9090
155.9827,84.7922
155.8056,84.7020
155.8056,84.7020
155.6166,84.6406
155.5185,84.6250
155.4204,84.6095
155.2216,84.6095
155.1562,84.6199
155.0254,84.6406
154.8364,84.7020
154.8364,84.7020
154.6593,84.7922
154.4985,84.9090
154.3580,85.0495
154.2412,85.2103
154.1615,85.3668
154.1135,85.4176
154.0457,85.4344
153.9796,85.4118
153.9405,85.3668
153.8609,85.2106
153.8608,85.2103
153.7440,85.0495
153.6035,84.9090
153.4427,84.7922
153.2656,84.7020
153.2656,84.7020
153.0766,84.6406
152.9785,84.6250
152.8804,84.6095
152.6816,84.6095
152.6162,84.6199
152.4854,84.6406
152.2964,84.7020
152.2964,84.7020
152.1193,84.7922
151.9585,84.9090
151.8180,85.0495
151.7012,85.2103
151.6215,85.3668
151.5735,85.4176
151.5057,85.4344
151.4396,85.4118
151.4005,85.3668
151.3209,85.2106
151.3208,85.2103
151.2040,85.0495
151.0635,84.9090
150.9027,84.7922
150.7256,84.7020
150.7256,84.7020
150.5366,84.6406
150.4385,84.6250
150.3404,84.6095
150.1416,84.6095
150.0762,84.6199
149.9454,84.6406
149.7564,84.7020
149.7564,84.7020
149.5793,84.7922
149.4185,84.9090
149.2780,85.0495
149.1612,85.2103
149.0815,85.3668
149.0335,85.4176
148.9657,85.4344
148.8996,85.4118
148.8605,85.3668
148.7809,85.2106
148.7808,85.2103
148.6640,85.0495
148.5235,84.9090
148.3627,84.7922
148.1856,84.7020
148.1856,84.7020
147.9966,84.6406
147.8985,84.6250
147.8004,84.6095
147.6016,84.6095
147.5362,84.6199
147.4054,84.6406
147.2164,84.7020
147.2164,84.7020
147.0393,84.7922
146.8785,84.9090
146.7380,85.0495
146.6212,85.2103
146.5415,85.3668
146.4935,85.4176
146.4257,85.4344
146.3596,85.4118
146.3205,85.3668
146.2409,85.2106
146.2408,85.2103
146.1240,85.0495
145.9835,84.9090
145.8227,84.7922
145.6456,84.7020
145.6456,84.7020
145.4566,84.6406
145.3585,84.6250
145.2604,84.6095
145.0616,84.6095
144.9962,84.6199
144.8654,84.6406
144.6764,84.7020
144.6764,84.7020
144.4993,84.7922
144.3385,84.9090
144.1980,85.0495
144.0812,85.2103
144.0015,85.3668
143.9535,85.4176
143.8857,85.4344
143.8196,85.4118
143.7805,85.3668
143.7009,85.2106
143.7008,85.2103
143.5840,85.0495
143.4435,84.9090
143.2827,84.7922
143.1056,84.7020
143.1056,84.7020
142.9166,84.6406
142.8185,84.6250
142.7204,84.6095
142.5216,84.6095
142.4562,84.6199
142.3254,84.6406
142.1364,84.7020
142.1364,84.7020
141.9593,84.7922
141.7985,84.9090
141.6580,85.0495
141.5412,85.2103
141.4615,85.3668
141.4135,85.4176
141.3457,85.4344
141.2796,85.4118
141.2405,85.3668
141.1609,85.2106
141.1608,85.2103
141.0440,85.0495
140.9035,84.9090
140.7427,84.7922
140.5656,84.7020
140.5656,84.7020
140.3766,84.6406
140.2785,84.6250
140.1804,84.6095
139.9816,84.6095
139.9162,84.6199
139.7854,84.6406
139.5964,84.7020
139.5964,84.7020
139.4193,84.7922
139.2585,84.9090
139.1180,85.0495
139.0012,85.2103
138.9215,85.3668
138.8735,85.4176
138.8057,85.4344
138.7396,85.4118
138.7005,85.3668
138.6209,85.2106
138.6208,85.2103
138.5040,85.0495
138.3635,84.9090
138.2027,84.7922
138.0256,84.7020
138.0256,84.7020
137.8366,84.6406
137.7385,84.6250
137.6404,84.6095
137.4416,84.6095
137.3762,84.6199
137.2454,84.6406
137.0564,84.7020
137.0564,84.7020
136.8793,84.7922
136.7185,84.9090
136.5780,85.0495
136.4612,85.2103
136.3815,85.3668
136.3335,85.4176
136.2657,85.4344
136.1996,85.4118
136.1605,85.3668
136.0809,85.2106
136.0808,85.2103
135.9640,85.0495
135.8235,84.9090
135.6627,84.7922
135.4856,84.7020
135.4856,84.7020
135.2966,84.6406
135.1985,84.6250
135.1004,84.6095
134.9016,84.6095
134.8362,84.6199
134.7054,84.6406
134.5164,84.7020
134.5164,84.7020
134.3393,84.7922
134.1785,84.9090
134.0380,85.0495
133.9212,85.2103
133.8415,85.3668
133.7935,85.4176
133.7257,85.4344
133.6596,85.4118
133.6205,85.3668
133.5409,85.2106
133.5408,85.2103
133.4240,85.0495
133.2835,84.9090
133.1227,84.7922
132.9456,84.7020
132.9456,84.7020
132.7566,84.6406
132.6585,84.6250
132.5604,84.6095
132.3616,84.6095
132.2962,84.6199
132.1654,84.6406
131.9764,84.7020
131.9764,84.7020
131.7993,84.7922
131.6385,84.9090
131.4980,85.0495
131.3812,85.2103
131.3197,85.3311
131.2717,85.3819
131.2039,85.3987
131.1377,85.3762
131.0943,85.3214
131.0913,85.3131
131.0910,85.3124
131.0910,85.3124
131.0008,85.1353
130.8840,84.9745
130.7435,84.8340
130.5827,84.7172
130.5528,84.7020
130.4056,84.6270
130.4056,84.6270
130.2166,84.5656
130.0204,84.5345
130.0155,84.5341
130.0156,84.5327
129.9546,84.5148
129.9089,84.4620
129.8989,84.3929
129.9279,84.3293
129.9340,84.3228
132.0150,82.2418
132.0763,82.2083
132.1027,82.2055
152.7898,82.2055
152.7898,82.2055
152.8868,82.1862
152.9541,82.1728
152.9541,82.1728
152.9541,82.1728
152.9994,82.1540
153.1089,82.1087
153.2482,82.0156
156.4659,78.7979
167.6434,78.7979
170.9579,78.7979
170.9579,67.8651
167.6434,67.8651
167.6434,78.7979
156.4659,78.7979
166.1416,69.1222
166.2347,68.9829
166.2744,68.8871
166.2988,68.8281
166.3315,68.6638
166.3315,62.5093
166.3512,62.4423
166.3678,62.4216
166.3815,62.4079
166.4440,62.3455
166.5608,62.1847
166.6510,62.0076
166.7124,61.8186
166.7435,61.6224
166.7435,60.4476
166.7124,60.2514
166.6880,60.1764
166.6727,60.1291
166.6618,60.0956
169.2605,60.0956
169.2605,60.3004
169.2925,60.5025
169.3558,60.6972
169.4487,60.8796
169.5690,61.0452
169.7138,61.1900
169.8687,61.3026
169.8794,61.3103
169.9956,61.3695
170.0618,61.4032
170.0618,61.4032
170.0618,61.4032
170.1326,61.4262
170.2565,61.4665
170.3576,61.4825
170.4586,61.4985
170.4586,61.4985
170.6634,61.4985
170.6634,61.4985
170.8655,61.4665
171.0602,61.4032
171.2426,61.3103
171.3356,61.2427
171.4082,61.1900
171.4082,61.1900
171.4082,61.1900
171.5530,61.0452
171.5530,61.0452
171.5530,61.0452
171.6057,60.9726
171.6733,60.8796
171.7662,60.6972
171.8295,60.5025
171.8615,60.3004
171.8615,60.0956
171.8295,59.8935
171.7662,59.6988
171.7662,59.6988
171.7662,59.6988
171.7093,59.5870
171.6733,59.5164
171.6376,59.4672
171.5530,59.3508
171.4082,59.2060
171.2426,59.0857
171.2426,59.0857
171.2426,59.0857
171.1857,59.0567
171.0602,58.9928
170.8655,58.9295
170.6910,58.9019
170.6634,58.8975
170.4586,58.8975
170.4343,58.9014
170.2565,58.9295
170.0618,58.9928
169.8794,59.0857
169.7138,59.2060
169.5690,59.3508
169.4487,59.5164
169.3558,59.6988
169.2925,59.8935
169.2605,60.0956
166.6618,60.0956
166.6510,60.0624
166.6510,60.0624
166.6050,59.9721
166.5608,59.8853
166.4440,59.7245
166.3035,59.5840
166.1427,59.4672
166.1417,59.4667
165.9656,59.3770
165.9656,59.3770
165.7766,59.3156
165.6785,59.3000
165.5804,59.2845
165.3816,59.2845
165.3162,59.2949
165.1854,59.3156
164.9964,59.3770
164.9964,59.3770
164.8193,59.4672
164.6585,59.5840
164.5180,59.7245
164.4012,59.8853
164.3393,60.0067
164.2914,60.0575
164.2235,60.0743
164.1574,60.0518
164.1140,59.9971
164.1109,59.9887
164.1105,59.9876
164.0204,59.8106
163.9036,59.6499
163.9036,59.6499
163.7631,59.5094
163.6024,59.3926
163.4254,59.3025
163.4254,59.3025
163.2365,59.2411
163.1910,59.2339
163.1910,60.5270
163.1340,60.4941
163.0068,60.4600
162.8752,60.4600
162.7480,60.4941
162.6910,60.5270
162.6910,59.2339
162.6910,59.2339
162.6455,59.2411
162.4566,59.3025
162.2796,59.3926
162.1189,59.5094
162.1189,59.5094
161.9784,59.6499
161.9784,59.6499
161.8616,59.8106
161.7818,59.9673
161.7338,60.0181
161.6660,60.0349
161.5998,60.0124
161.5608,59.9673
161.4808,59.8103
161.3640,59.6495
161.2235,59.5090
161.0627,59.3922
161.0328,59.3770
160.8856,59.3020
160.8856,59.3020
160.6966,59.2406
160.5985,59.2250
160.5004,59.2095
160.3016,59.2095
160.2362,59.2199
160.1054,59.2406
159.9164,59.3020
159.9164,59.3020
159.7393,59.3922
159.5785,59.5090
159.4380,59.6495
159.3212,59.8103
159.2415,59.9668
159.1935,60.0176
159.1257,60.0344
159.0596,60.0118
159.0205,59.9668
158.9832,59.8935
158.9408,59.8103
158.8240,59.6495
158.6835,59.5090
158.5227,59.3922
158.4928,59.3770
158.3456,59.3020
158.3456,59.3020
158.1566,59.2406
158.0585,59.2250
157.9604,59.2095
157.7616,59.2095
157.6962,59.2199
157.5654,59.2406
157.3764,59.3020
157.3764,59.3020
157.1993,59.3922
157.0385,59.5090
156.8980,59.6495
156.7812,59.8103
156.7015,59.9668
156.6535,60.0176
156.5857,60.0344
156.5196,60.0118
156.4805,59.9668
156.4432,59.8935
156.4008,59.8103
156.2840,59.6495
156.1435,59.5090
155.9827,59.3922
155.9528,59.3770
155.8056,59.3020
155.8056,59.3020
155.6166,59.2406
155.5185,59.2250
155.4204,59.2095
155.2216,59.2095
155.1562,59.2199
155.0254,59.2406
154.8364,59.3020
154.8364,59.3020
154.6593,59.3922
154.4985,59.5090
154.3580,59.6495
154.2412,59.8103
154.1615,59.9668
154.1135,60.0176
154.0457,60.0344
153.9796,60.0118
153.9405,59.9668
153.9032,59.8935
153.8608,59.8103
153.7440,59.6495
153.6035,59.5090
153.4427,59.3922
153.4128,59.3770
153.2656,59.3020
153.2656,59.3020
153.0766,59.2406
152.9785,59.2250
152.8804,59.2095
152.6816,59.2095
152.6162,59.2199
152.4854,59.2406
152.2964,59.3020
152.2964,59.3020
152.1193,59.3922
151.9585,59.5090
151.8180,59.6495
151.7012,59.8103
151.6215,59.9668
151.5735,60.0176
151.5057,60.0344
151.4396,60.0118
151.4005,59.9668
151.3632,59.8935
151.3208,59.8103
151.2040,59.6495
151.0635,59.5090
150.9027,59.3922
150.8728,59.3770
150.7256,59.3020
150.7256,59.3020
150.5366,59.2406
150.4385,59.2250
150.3404,59.2095
150.1416,59.2095
150.0762,59.2199
149.9454,59.2406
149.7564,59.3020
149.7564,59.3020
149.5793,59.3922
149.4185,59.5090
149.2780,59.6495
149.1612,59.8103
149.0815,59.9668
149.0335,60.0176
148.9657,60.0344
148.8996,60.0118
148.8605,59.9668
148.8232,59.8935
148.7808,59.8103
148.6640,59.6495
148.5235,59.5090
148.3627,59.3922
148.3328,59.3770
148.1856,59.3020
148.1856,59.3020
147.9966,59.2406
147.8985,59.2250
147.8004,59.2095
147.6016,59.2095
147.5362,59.2199
147.4054,59.2406
147.2164,59.3020
147.2164,59.3020
147.0393,59.3922
146.8785,59.5090
146.7380,59.6495
146.6212,59.8103
146.5415,59.9668
146.4935,60.0176
146.4257,60.0344
146.3596,60.0118
146.3205,59.9668
146.2832,59.8935
146.2408,59.8103
146.1240,59.6495
145.9835,59.5090
145.8227,59.3922
145.7928,59.3770
145.6456,59.3020
145.6456,59.3020
145.4566,59.2406
145.3585,59.2250
145.2604,59.2095
145.0616,59.2095
144.9962,59.2199
144.8654,59.2406
144.6764,59.3020
144.6764,59.3020
144.4993,59.3922
144.3385,59.5090
144.1980,59.6495
144.0812,59.8103
144.0015,59.9668
143.9535,60.0176
143.8857,60.0344
143.8196,60.0118
143.7805,59.9668
143.7432,59.8935
143.7008,59.8103
143.5840,59.6495
143.4435,59.5090
143.2827,59.3922
143.2528,59.3770
143.1056,59.3020
143.1056,59.3020
142.9166,59.2406
142.8185,59.2250
142.7204,59.2095
142.5216,59.2095
142.4562,59.2199
142.3254,59.2406
142.1364,59.3020
142.1364,59.3020
141.9593,59.3922
141.7985,59.5090
141.6580,59.6495
141.5412,59.8103
141.4615,59.9668
141.4135,60.0176
141.3457,60.0344
141.2796,60.0118
141.2405,59.9668
141.2032,59.8935
141.1608,59.8103
141.0440,59.6495
140.9035,59.5090
140.7427,59.3922
140.7128,59.3770
140.5656,59.3020
140.5656,59.3020
140.3766,59.2406
140.2785,59.2250
140.1804,59.2095
139.9816,59.2095
139.9162,59.2199
139.7854,59.2406
139.5964,59.3020
139.5964,59.3020
139.4193,59.3922
139.2585,59.5090
139.1180,59.6495
139.0012,59.8103
138.9215,59.9668
138.8735,60.0176
138.8057,60.0344
138.7396,60.0118
138.7005,59.9668
138.6632,59.8935
138.6208,59.8103
138.5040,59.6495
138.3635,59.5090
138.2027,59.3922
138.1728,59.3770
138.0256,59.3020
138.0256,59.3020
137.8366,59.2406
137.7385,59.2250
137.6404,59.2095
137.4416,59.2095
137.3762,59.2199
137.2454,59.2406
137.0564,59.3020
137.0564,59.3020
136.8793,59.3922
136.7185,59.5090
136.5780,59.6495
136.4612,59.8103
136.3815,59.9668
136.3335,60.0176
136.2657,60.0344
136.1996,60.0118
136.1605,59.9668
136.1232,59.8935
136.0808,59.8103
135.9640,59.6495
135.8235,59.5090
135.6627,59.3922
135.6328,59.3770
135.4856,59.3020
135.4856,59.3020
135.2966,59.2406
135.1985,59.2250
135.1004,59.2095
134.9016,59.2095
134.8362,59.2199
134.7054,59.2406
134.5164,59.3020
134.5164,59.3020
134.3393,59.3922
134.1785,59.5090
134.0380,59.6495
133.9212,59.8103
133.8415,59.9668
133.7935,60.0176
133.7257,60.0344
133.6596,60.0118
133.6205,59.9668
133.5832,59.8935
133.5408,59.8103
133.4240,59.6495
133.2835,59.5090
133.1227,59.3922
133.0928,59.3770
132.9456,59.3020
132.9456,59.3020
132.7566,59.2406
132.6585,59.2250
132.5604,59.2095
132.3616,59.2095
132.2962,59.2199
132.1654,59.2406
131.9764,59.3020
131.9764,59.3020
131.7993,59.3922
131.6385,59.5090
131.4980,59.6495
131.3812,59.8103
131.3015,59.9668
131.2535,60.0176
131.1857,60.0344
131.1196,60.0118
131.0805,59.9668
131.0432,59.8935
131.0008,59.8103
130.8840,59.6495
130.7435,59.5090
130.5827,59.3922
130.5528,59.3770
130.4056,59.3020
130.4056,59.3020
130.2166,59.2406
130.1185,59.2250
130.0204,59.2095
129.8216,59.2095
129.7562,59.2199
129.6254,59.2406
129.4364,59.3020
129.4364,59.3020
129.2593,59.3922
129.0985,59.5090
128.9580,59.6495
128.8412,59.8103
128.7510,59.9874
128.7510,59.9874
128.6896,60.1764
128.6896,60.1764
128.6585,60.3726
128.6585,61.5474
128.6704,61.6224
128.6896,61.7436
128.7510,61.9326
128.7510,61.9326
128.8411,62.1094
128.8412,62.1097
128.9580,62.2705
129.0985,62.4110
129.2593,62.5278
129.3278,62.5627
129.4364,62.6180
129.4364,62.6180
129.5309,62.6487
129.6254,62.6794
129.8216,62.7105
129.8216,62.7105
130.0204,62.7105
130.0204,62.7105
130.2166,62.6794
130.4056,62.6180
130.5827,62.5278
130.7435,62.4110
130.8840,62.2705
131.0008,62.1097
131.0805,61.9532
131.1285,61.9024
131.1963,61.8856
131.2624,61.9082
131.3015,61.9532
131.3812,62.1097
131.4980,62.2705
131.4980,62.2705
131.5742,62.3466
131.6077,62.4079
131.6105,62.4343
131.6105,63.0238
131.6432,63.1881
131.6432,63.1881
131.7073,63.3429
131.7073,63.3429
131.8004,63.4822
131.8004,63.4822
136.5272,68.2090
136.5607,68.2703
136.5635,68.2967
136.5635,72.0613
136.5438,72.1284
136.5272,72.1490
135.1930,73.4832
135.1317,73.5167
135.1053,73.5195
133.8408,73.5195
133.7737,73.4998
133.7531,73.4832
133.6098,73.3399
133.4378,73.2149
133.4285,73.2102
133.3777,73.1622
133.3609,73.0944
133.3834,73.0283
133.4285,72.9892
133.4376,72.9846
133.6095,72.8597
133.6095,72.8597
133.7597,72.7095
133.7597,72.7095
133.8846,72.5376
133.9811,72.3482
134.0468,72.1461
134.0468,72.1461
134.0572,72.0800
132.5130,72.0800
132.5459,72.0230
132.5800,71.8958
132.5800,71.7642
132.5459,71.6370
132.5130,71.5800
134.0572,71.5800
134.0468,71.5139
134.0468,71.5139
133.9811,71.3118
133.8846,71.1224
133.7597,70.9505
133.7597,70.9505
133.6095,70.8003
133.6095,70.8003
133.4376,70.6754
133.4285,70.6708
133.3777,70.6228
133.3609,70.5550
133.3835,70.4888
133.4285,70.4498
133.4378,70.4451
133.5170,70.3875
133.6098,70.3201
133.6098,70.3201
133.6098,70.3201
133.7601,70.1698
133.7601,70.1698
133.7601,70.1698
133.8850,69.9978
133.8850,69.9978
133.8851,69.9978
133.9816,69.8084
134.0472,69.6062
134.0805,69.3963
134.0805,69.1837
134.0472,68.9738
133.9816,68.7716
133.8851,68.5822
133.8850,68.5822
133.8850,68.5822
133.7601,68.4102
133.6098,68.2599
133.4378,68.1350
133.2484,68.0384
133.2484,68.0384
133.2484,68.0384
133.0462,67.9728
133.0462,67.9728
133.0462,67.9728
132.8850,67.9472
132.8363,67.9395
131.3237,67.9395
131.2750,67.9472
131.1138,67.9728
130.9116,68.0384
130.7222,68.1350
130.5502,68.2599
130.5502,68.2599
130.4069,68.4032
130.3456,68.4367
130.3192,68.4395
129.7102,68.4395
129.5459,68.4722
129.5459,68.4722
129.3911,68.5363
129.3911,68.5363
129.3911,68.5363
129.3225,68.5822
129.2518,68.6294
129.2518,68.6294
127.8634,70.0178
127.8634,70.0178
127.7703,70.1571
127.7703,70.1571
127.7310,70.2520
127.7310,70.2521
127.7062,70.3119
127.7062,70.3119
127.6735,70.4762
127.6735,82.9628
127.7062,83.1271
127.7062,83.1271
127.7703,83.2819
127.7703,83.2819
127.8634,83.4212
127.8634,83.4212
128.0590,83.6168
128.0925,83.6781
128.0875,83.7478
128.0590,83.7922
123.1084,88.7428
123.1084,88.7428
123.0153,88.8821
123.0153,88.8821
122.9772,88.9741
122.9772,88.9741
122.9512,89.0369
122.9512,89.0369
122.9185,89.2012
121.7615,89.2012
121.7615,84.0050
121.7812,83.9380
121.8340,83.8922
121.8855,83.8810
126.7530,83.8810
126.7530,62.8810
121.8855,62.8810
121.8185,62.8613
121.7727,62.8085
121.7615,62.7570
121.7615,60.4766
123.9215,60.4766
123.9215,60.6814
123.9535,60.8835
124.0168,61.0782
124.1097,61.2606
124.2300,61.4262
124.3748,61.5710
124.5297,61.6836
124.5404,61.6913
124.6431,61.7436
124.7228,61.7842
124.7228,61.7842
124.7228,61.7842
124.8271,61.8181
124.9175,61.8475
125.0186,61.8635
125.1196,61.8795
125.1196,61.8795
125.3244,61.8795
125.3244,61.8795
125.5265,61.8475
125.7212,61.7842
125.9036,61.6913
125.9985,61.6224
126.0692,61.5710
126.0692,61.5710
126.0692,61.5710
126.2140,61.4262
126.2140,61.4262
126.2140,61.4262
126.2667,61.3536
126.3343,61.2606
126.4272,61.0782
126.4905,60.8835
126.5225,60.6814
126.5225,60.4766
126.4905,60.2745
126.4272,60.0798
126.4272,60.0798
126.4272,60.0798
126.3801,59.9874
126.3343,59.8974
126.3255,59.8853
126.2140,59.7318
126.0692,59.5870
125.9036,59.4667
125.9036,59.4667
125.9036,59.4667
125.8467,59.4377
125.7212,59.3738
125.5265,59.3105
125.3520,59.2829
125.3244,59.2785
125.1196,59.2785
125.0953,59.2824
124.9175,59.3105
124.7228,59.3738
124.5404,59.4667
124.3748,59.5870
124.2300,59.7318
124.1097,59.8974
124.0168,60.0798
123.9535,60.2745
123.9215,60.4766
121.7615,60.4766
121.7615,57.7515
121.7812,57.6845
121.8340,57.6387
121.8855,57.6275
177.4065,57.6275
Z" /> 
</g>
<g style="fill:#FFFFFF; fill-opacity:1.0000; stroke:none;">
<circle cx="132.0800" cy="69.2900" r="0.5000" /> 
</g>
<g style="fill:#FFFFFF; fill-opacity:1.0000; stroke:none;">
<circle cx="132.0800" cy="71.8300" r="0.5000" /> 
</g>
<g style="fill:#FFFFFF; fill-opacity:1.0000; stroke:none;">
<circle cx="132.0800" cy="74.3700" r="0.5000" /> 
</g>
<g style="fill:#FFFFFF; fill-opacity:1.0000; stroke:none;">
<circle cx="132.0800" cy="76.9100" r="0.5000" /> 
</g>
<g style="fill:#FFFFFF; fill-opacity:1.0000; stroke:none;">
<circle cx="139.5730" cy="103.7070" r="0.4000" /> 
</g>
<g style="fill:#FFFFFF; fill-opacity:1.0000; stroke:none;">
<circle cx="139.5730" cy="93.5470" r="0.4000" /> 
</g>
<g style="fill:#FFFFFF; fill-opacity:1.0000; stroke:none;">
<circle cx="145.6690" cy="103.7070" r="0.4000" /> 
</g>
<g style="fill:#FFFFFF; fill-opacity:1.0000; stroke:none;">
<circle cx="145.6690" cy="93.5470" r="0.4000" /> 
</g>
<g style="fill:#FFFFFF; fill-opacity:1.0000; stroke:none;">
<circle cx="151.7650" cy="103.7070" r="0.4000" /> 
</g>
<g style="fill:#FFFFFF; fill-opacity:1.0000; stroke:none;">
<circle cx="151.7650" cy="93.5470" r="0.4000" /> 
</g>
<g style="fill:#FFFFFF; fill-opacity:1.0000; stroke:none;">
<circle cx="129.9210" cy="86.2850" r="0.5000" /> 
</g>
<g style="fill:#FFFFFF; fill-opacity:1.0000; stroke:none;">
<circle cx="132.4610" cy="86.3600" r="0.5000" /> 
</g>
<g style="fill:#FFFFFF; fill-opacity:1.0000; stroke:none;">
<circle cx="135.0010" cy="86.3600" r="0.5000" /> 
</g>
<g style="fill:#FFFFFF; fill-opacity:1.0000; stroke:none;">
<circle cx="137.5410" cy="86.3600" r="0.5000" /> 
</g>
<g style="fill:#FFFFFF; fill-opacity:1.0000; stroke:none;">
<circle cx="140.0810" cy="86.3600" r="0.5000" /> 
</g>
<g style="fill:#FFFFFF; fill-opacity:1.0000; stroke:none;">
<circle cx="142.6210" cy="86.3600" r="0.5000" /> 
</g>
<g style="fill:#FFFFFF; fill-opacity:1.0000; stroke:none;">
<circle cx="145.1610" cy="86.3600" r="0.5000" /> 
</g>
<g style="fill:#FFFFFF; fill-opacity:1.0000; stroke:none;">
<circle cx="147.7010" cy="86.3600" r="0.5000" /> 
</g>
<g style="fill:#FFFFFF; fill-opacity:1.0000; stroke:none;">
<circle cx="150.2410" cy="86.3600" r="0.5000" /> 
</g>
<g style="fill:#FFFFFF; fill-opacity:1.0000; stroke:none;">
<circle cx="152.7810" cy="86.3600" r="0.5000" /> 
</g>
<g style="fill:#FFFFFF; fill-opacity:1.0000; stroke:none;">
<circle cx="155.3210" cy="86.3600" r="0.5000" /> 
</g>
<g style="fill:#FFFFFF; fill-opacity:1.0000; stroke:none;">
<circle cx="157.8610" cy="86.3600" r="0.5000" /> 
</g>
<g style="fill:#FFFFFF; fill-opacity:1.0000; stroke:none;">
<circle cx="160.4010" cy="86.3600" r="0.5000" /> 
</g>
<g style="fill:#FFFFFF; fill-opacity:1.0000; stroke:none;">
<circle cx="162.9410" cy="86.3600" r="0.5000" /> 
</g>
<g style="fill:#FFFFFF; fill-opacity:1.0000; stroke:none;">
<circle cx="165.4810" cy="86.3600" r="0.5000" /> 
</g>
<g style="fill:#FFFFFF; fill-opacity:1.0000; stroke:none;">
<circle cx="165.4810" cy="61.0350" r="0.5000" /> 
</g>
<g style="fill:#FFFFFF; fill-opacity:1.0000; stroke:none;">
<circle cx="162.9410" cy="60.9600" r="0.5000" /> 
</g>
<g style="fill:#FFFFFF; fill-opacity:1.0000; stroke:none;">
<circle cx="160.4010" cy="60.9600" r="0.5000" /> 
</g>
<g style="fill:#FFFFFF; fill-opacity:1.0000; stroke:none;">
<circle cx="157.8610" cy="60.9600" r="0.5000" /> 
</g>
<g style="fill:#FFFFFF; fill-opacity:1.0000; stroke:none;">
<circle cx="155.3210" cy="60.9600" r="0.5000" /> 
</g>
<g style="fill:#FFFFFF; fill-opacity:1.0000; stroke:none;">
<circle cx="152.7810" cy="60.9600" r="0.5000" /> 
</g>
<g style="fill:#FFFFFF; fill-opacity:1.0000; stroke:none;">
<circle cx="150.2410" cy="60.9600" r="0.5000" /> 
</g>
<g style="fill:#FFFFFF; fill-opacity:1.0000; stroke:none;">
<circle cx="147.7010" cy="60.9600" r="0.5000" /> 
</g>
<g style="fill:#FFFFFF; fill-opacity:1.0000; stroke:none;">
<circle cx="145.1610" cy="60.9600" r="0.5000" /> 
</g>
<g style="fill:#FFFFFF; fill-opacity:1.0000; stroke:none;">
<circle cx="142.6210" cy="60.9600" r="0.5000" /> 
</g>
<g style="fill:#FFFFFF; fill-opacity:1.0000; stroke:none;">
<circle cx="140.0810" cy="60.9600" r="0.5000" /> 
</g>
<g style="fill:#FFFFFF; fill-opacity:1.0000; stroke:none;">
<circle cx="137.5410" cy="60.9600" r="0.5000" /> 
</g>
<g style="fill:#FFFFFF; fill-opacity:1.0000; stroke:none;">
<circle cx="135.0010" cy="60.9600" r="0.5000" /> 
</g>
<g style="fill:#FFFFFF; fill-opacity:1.0000; stroke:none;">
<circle cx="132.4610" cy="60.9600" r="0.5000" /> 
</g>
<g style="fill:#FFFFFF; fill-opacity:1.0000; stroke:none;">
<circle cx="129.9210" cy="60.9600" r="0.5000" /> 
</g>
<g style="fill:#FFFFFF; fill-opacity:1.0000; stroke:none;">
<circle cx="175.7680" cy="103.9610" r="0.5000" /> 
</g>
<g style="fill:#FFFFFF; fill-opacity:1.0000; stroke:none;">
<circle cx="173.2280" cy="103.9610" r="0.5000" /> 
</g>
<g style="fill:#FFFFFF; fill-opacity:1.0000; stroke:none;">
<circle cx="133.4770" cy="103.7070" r="0.4000" /> 
</g>
<g style="fill:#FFFFFF; fill-opacity:1.0000; stroke:none;">
<circle cx="133.4770" cy="93.5470" r="0.4000" /> 
</g>
<g style="fill:#FFFFFF; fill-opacity:1.0000; stroke:none;">
<circle cx="170.0530" cy="103.7070" r="0.4000" /> 
</g>
<g style="fill:#FFFFFF; fill-opacity:1.0000; stroke:none;">
<circle cx="170.0530" cy="93.5470" r="0.4000" /> 
</g>
<g style="fill:#FFFFFF; fill-opacity:1.0000; stroke:none;">
<circle cx="157.8610" cy="103.7070" r="0.4000" /> 
</g>
<g style="fill:#FFFFFF; fill-opacity:1.0000; stroke:none;">
<circle cx="157.8610" cy="93.5470" r="0.4000" /> 
</g>
<g style="fill:#FFFFFF; fill-opacity:1.0000; stroke:none;">
<circle cx="163.9570" cy="103.7070" r="0.4000" /> 
</g>
<g style="fill:#FFFFFF; fill-opacity:1.0000; stroke:none;">
<circle cx="163.9570" cy="93.5470" r="0.4000" /> 
</g>
<g style="fill:#FFFFFF; fill-opacity:1.0000; stroke:none;">
<circle cx="127.3810" cy="103.7070" r="0.4000" /> 
</g>
<g style="fill:#FFFFFF; fill-opacity:1.0000; stroke:none;">
<circle cx="127.3810" cy="93.5470" r="0.4000" /> 
</g> 
</svg>
